<svg width="745" height="544" viewBox="0 0 745 544" fill="none" xmlns="http://www.w3.org/2000/svg">
<g id="Illustration">
<g id="Shape">
<g id="Group 59">
<path id="Path" opacity="0.0845424" d="M673.322 164.249C682.7 151.73 700.455 149.18 712.981 158.552C725.381 167.83 728.007 185.315 718.959 197.81L718.681 198.187L644.381 297.373C634.918 310.007 617.342 313.21 604.042 304.802L603.641 304.544L556.867 273.948L509.707 342.593C500.939 355.356 483.566 358.693 470.703 350.17L470.315 349.908C457.545 341.146 454.206 323.783 462.734 310.928L462.996 310.539L524.795 220.586C534.001 207.185 552.143 203.492 565.843 212.144L566.257 212.41L613.9 243.574L673.322 164.249Z" fill="#6D1E84"/>
<path id="Path_2" opacity="0.0845424" d="M430.119 3.29424C432.497 -0.160162 437.233 -1.03872 440.697 1.33194C444.116 3.67139 445.019 8.30087 442.757 11.7421L442.665 11.8791L424.149 38.779C421.434 42.5698 416.182 43.4829 412.346 40.8606L412.209 40.7654L401.575 33.1946L390.049 51.4538C387.84 54.9536 383.235 56.0368 379.697 53.9185L379.558 53.8332C376.048 51.6305 374.961 47.0392 377.086 43.5109L377.171 43.3722L392.456 19.158C394.974 15.169 400.258 13.9705 404.259 16.4812L404.468 16.6168L404.674 16.7584L415.531 24.4883L430.119 3.29424Z" fill="#7367F0"/>
<path id="+" opacity="0.070266" fill-rule="evenodd" clip-rule="evenodd" d="M632.405 129.308C633.785 129.308 634.905 128.189 634.905 126.808V108.831H652.894C654.274 108.831 655.394 107.711 655.394 106.331V97.676C655.394 96.2952 654.274 95.176 652.894 95.176H634.905V77.0663C634.905 75.6856 633.785 74.5663 632.405 74.5663H623.609C622.228 74.5663 621.109 75.6856 621.109 77.0663V95.176H603.12C601.739 95.176 600.62 96.2952 600.62 97.676V106.331C600.62 107.711 601.739 108.831 603.12 108.831H621.109V126.808C621.109 128.189 622.228 129.308 623.609 129.308H632.405Z" fill="#3B4ACF"/>
<path id="Oval" opacity="0.0739397" fill-rule="evenodd" clip-rule="evenodd" d="M91.604 20C142.195 20 183.208 60.9886 183.208 111.551C183.208 162.113 142.195 203.101 91.604 203.101C41.0125 203.101 0 162.113 0 111.551C0 60.9886 41.0125 20 91.604 20ZM91.604 65.3034C66.0475 65.3034 45.3298 86.0089 45.3298 111.551C45.3298 137.092 66.0475 157.798 91.604 157.798C117.16 157.798 137.878 137.092 137.878 111.551C137.878 86.0089 117.16 65.3034 91.604 65.3034Z" fill="#8948D7"/>
</g>
</g>
<g id="Meeting">
<g id="Group 63">
<path id="Rectangle" fill-rule="evenodd" clip-rule="evenodd" d="M60.5977 101C60.5977 92.1634 67.7611 85 76.5977 85H546.726C555.563 85 562.726 92.1634 562.726 101V305.224C562.726 314.061 555.563 321.224 546.726 321.224H76.5977C67.7611 321.224 60.5977 314.061 60.5977 305.224V101Z" fill="#654888"/>
<path id="Rectangle_2" opacity="0.383371" fill-rule="evenodd" clip-rule="evenodd" d="M68.1484 101C68.1484 92.1634 75.3119 85 84.1484 85H546.726C555.563 85 562.726 92.1634 562.726 101V305.224C562.726 314.061 555.563 321.224 546.726 321.224H84.1485C75.3119 321.224 68.1484 314.061 68.1484 305.224V101Z" fill="#070707"/>
<path id="Rectangle_3" fill-rule="evenodd" clip-rule="evenodd" d="M75.6992 102.559C75.6992 97.0364 80.1764 92.5592 85.6992 92.5592H545.175C550.698 92.5592 555.175 97.0364 555.175 102.559V303.665C555.175 309.188 550.698 313.665 545.175 313.665H85.6992C80.1764 313.665 75.6992 309.188 75.6992 303.665L75.6992 102.559Z" fill="#0F010D"/>
<path id="Rectangle_4" fill-rule="evenodd" clip-rule="evenodd" d="M274.852 299.823C274.852 296.509 277.538 293.823 280.852 293.823H350.023C353.336 293.823 356.023 296.509 356.023 299.823V313.665H274.852V299.823Z" fill="#654888"/>
<path id="Rectangle_5" d="M282.402 299.823C282.402 296.509 285.089 293.823 288.402 293.823H357.573C360.887 293.823 363.573 296.509 363.573 299.823V321.225H282.402V299.823Z" fill="#654888"/>
</g>
<g id="ElementCard20">
<g id="Rectangle_6" filter="url(#filter0_d)">
<path fill-rule="evenodd" clip-rule="evenodd" d="M89.8574 107.397C89.8574 104.421 92.2701 102.008 95.2462 102.008H220.27C223.246 102.008 225.659 104.421 225.659 107.397V148.047C225.659 151.023 223.246 153.436 220.27 153.436H95.2462C92.2701 153.436 89.8574 151.023 89.8574 148.047V107.397Z" fill="#07152B"/>
</g>
<path id="Rectangle_7" opacity="0.454078" fill-rule="evenodd" clip-rule="evenodd" d="M130.038 132.559C130.038 131.716 130.722 131.032 131.566 131.032H156.993C157.837 131.032 158.521 131.716 158.521 132.559V132.559C158.521 133.403 157.837 134.087 156.993 134.087H131.566C130.722 134.087 130.038 133.403 130.038 132.559V132.559Z" fill="#C7C1FF"/>
<path id="Rectangle_8" fill-rule="evenodd" clip-rule="evenodd" d="M130.038 123.903C130.038 123.059 130.722 122.375 131.566 122.375H146.821C147.664 122.375 148.348 123.059 148.348 123.903V123.903C148.348 124.747 147.664 125.431 146.821 125.431H131.566C130.722 125.431 130.038 124.747 130.038 123.903V123.903Z" fill="#8478FF"/>
<g id="Group 9">
<path id="Path_3" fill-rule="evenodd" clip-rule="evenodd" d="M204.815 120.284C206.985 117.43 211.055 116.877 213.906 119.049C214.562 119.549 215.117 120.169 215.541 120.876C215.759 121.241 215.641 121.714 215.277 121.933C214.913 122.151 214.44 122.033 214.222 121.668C213.899 121.129 213.475 120.655 212.975 120.274C210.844 118.651 207.821 119.022 206.142 121.085L206.039 121.216L203.654 124.353C199.929 129.254 193.626 131.414 187.695 129.849L187.441 129.779L185.523 129.237C185.399 129.202 185.275 129.171 185.149 129.143C181.641 128.369 178.17 130.541 177.311 134.011L177.271 134.182L176.875 135.98C176.735 136.617 176.464 137.217 176.078 137.742C174.553 139.817 171.635 140.262 169.561 138.735C169.219 138.483 169.146 138.001 169.398 137.659C169.649 137.316 170.131 137.243 170.473 137.495C171.862 138.518 173.817 138.22 174.839 136.829C175.065 136.521 175.233 136.175 175.334 135.808L175.373 135.649L175.769 133.851C176.737 129.451 181.085 126.67 185.48 127.639L185.711 127.694L185.94 127.755L187.859 128.297C193.174 129.799 198.859 127.946 202.274 123.622L202.43 123.421L204.815 120.284Z" fill="#8478FF"/>
<path id="Path_4" fill-rule="evenodd" clip-rule="evenodd" d="M197.884 119.353C199.454 115.857 203.559 114.297 207.051 115.869C207.753 116.184 208.397 116.615 208.958 117.143C210.277 118.384 211.498 120.347 212.644 123.035C212.81 123.426 212.629 123.878 212.238 124.045C211.847 124.212 211.396 124.03 211.229 123.639C210.16 121.13 209.044 119.338 207.904 118.264C207.468 117.854 206.967 117.519 206.421 117.273C203.752 116.072 200.625 117.22 199.355 119.838L199.287 119.985L198.792 121.086C198.677 121.343 198.544 121.591 198.396 121.83C196.568 124.766 192.709 125.664 189.776 123.834C189.427 123.616 189.044 123.458 188.643 123.366C186.691 122.919 184.746 124.102 184.232 126.022L184.199 126.157L183.343 129.899C183.085 131.026 182.537 132.067 181.755 132.917C179.314 135.571 175.216 135.785 172.515 133.434L172.371 133.305L168.885 130.092C168.572 129.804 168.552 129.317 168.84 129.004C169.108 128.712 169.55 128.675 169.862 128.906L169.927 128.959L173.413 132.173C175.486 134.084 178.715 133.95 180.623 131.875C181.178 131.271 181.579 130.543 181.794 129.754L181.843 129.555L182.699 125.813C183.346 122.985 186.161 121.217 188.986 121.865C189.483 121.979 189.96 122.165 190.402 122.416L190.59 122.527C192.802 123.907 195.712 123.23 197.09 121.016C197.165 120.896 197.234 120.773 197.298 120.646L197.389 120.455L197.884 119.353Z" fill="#C7C1FF"/>
</g>
<ellipse id="Oval_2" cx="112.491" cy="128.231" rx="10.4267" ry="10.4383" fill="#9135AB"/>
</g>
<g id="ElementCard3">
<g id="Rectangle_9" filter="url(#filter1_d)">
<path fill-rule="evenodd" clip-rule="evenodd" d="M89.8574 165.592C89.8574 162.83 92.096 160.592 94.8574 160.592H253.807C256.568 160.592 258.807 162.83 258.807 165.592V298.271C258.807 301.033 256.568 303.271 253.807 303.271H94.8574C92.096 303.271 89.8574 301.033 89.8574 298.271V165.592Z" fill="#07152B"/>
</g>
<mask id="mask0" mask-type="alpha" maskUnits="userSpaceOnUse" x="89" y="160" width="170" height="144">
<path id="Rectangle_10" fill-rule="evenodd" clip-rule="evenodd" d="M89.8574 165.592C89.8574 162.83 92.096 160.592 94.8574 160.592H253.807C256.568 160.592 258.807 162.83 258.807 165.592V298.271C258.807 301.033 256.568 303.271 253.807 303.271H94.8574C92.096 303.271 89.8574 301.033 89.8574 298.271V165.592Z" fill="white"/>
</mask>
<g mask="url(#mask0)">
<g id="Path 3" filter="url(#filter2_d)">
<path d="M112.51 270.2C112.51 270.2 132.595 264.426 141.451 252.639C150.307 240.853 153.293 229.428 168.524 229.428C183.756 229.428 185.708 246.926 202.174 246.926C218.64 246.926 219.54 224.612 225.013 215.752C230.485 206.892 239.93 206.892 239.93 206.892" stroke="#6D1E84" stroke-width="4.004" stroke-linecap="round"/>
</g>
<path id="Path 3_2" opacity="0.414737" fill-rule="evenodd" clip-rule="evenodd" d="M112.51 268.982C112.51 268.982 132.595 263.232 141.451 251.497C150.307 239.761 153.293 228.386 168.524 228.386C183.756 228.386 185.708 245.808 202.174 245.808C218.64 245.808 219.54 223.591 225.013 214.769C230.485 205.947 239.93 205.947 239.93 205.947V280.349C239.93 282.05 238.551 283.429 236.85 283.429H115.59C113.889 283.429 112.51 282.05 112.51 280.349V268.982Z" fill="#9135AB"/>
<rect id="Rectangle_11" x="103.071" y="174.765" width="52.8556" height="5.66939" rx="2.83469" fill="#A46AE9"/>
<path id="Rectangle_12" fill-rule="evenodd" clip-rule="evenodd" d="M103.071 191.773C103.071 190.208 104.34 188.939 105.906 188.939H124.777C126.342 188.939 127.611 190.208 127.611 191.773V191.773C127.611 193.339 126.342 194.608 124.777 194.608H105.906C104.34 194.608 103.071 193.339 103.071 191.773V191.773Z" fill="#FBD5F7"/>
<ellipse id="Oval_3" cx="226.244" cy="178.072" rx="3.30348" ry="3.30714" fill="#8EEAF6" fill-opacity="0.451705"/>
<ellipse id="Oval_4" cx="235.682" cy="178.072" rx="3.30348" ry="3.30714" fill="#8EEAF6" fill-opacity="0.451705"/>
<ellipse id="Oval_5" cx="245.121" cy="178.072" rx="3.30348" ry="3.30714" fill="#8EEAF6" fill-opacity="0.451705"/>
</g>
</g>
<g id="ElementCard11">
<g id="Rectangle_13" filter="url(#filter3_d)">
<path fill-rule="evenodd" clip-rule="evenodd" d="M285.234 122.721C285.234 118.588 288.585 115.237 292.719 115.237H517.931C522.065 115.237 525.416 118.588 525.416 122.721V273.237C525.416 277.37 522.065 280.721 517.931 280.721H292.719C288.585 280.721 285.234 277.37 285.234 273.237V122.721Z" fill="#07152B"/>
</g>
<g id="Group 26">
<path id="Path_5" fill-rule="evenodd" clip-rule="evenodd" d="M325.854 200.101V259.287H317.023V200.101H325.854Z" fill="#FFEBEF"/>
<path id="Path_6" fill-rule="evenodd" clip-rule="evenodd" d="M325.854 214.245V259.287H317.023V214.245H325.854Z" fill="#D083C9"/>
<path id="Path_7" fill-rule="evenodd" clip-rule="evenodd" d="M325.854 242.533V259.287H317.023V242.533H325.854Z" fill="#6D1E84"/>
</g>
<g id="Group 26_2">
<path id="Path_8" fill-rule="evenodd" clip-rule="evenodd" d="M347.046 185.957V259.287H338.216V185.957H347.046Z" fill="#FFEBEF"/>
<path id="Path_9" fill-rule="evenodd" clip-rule="evenodd" d="M347.046 207.173V259.287H338.216V207.173H347.046Z" fill="#D083C9"/>
<path id="Path_10" fill-rule="evenodd" clip-rule="evenodd" d="M347.046 242.533V259.287H338.216V242.533H347.046Z" fill="#6D1E84"/>
</g>
<g id="Group 26_3">
<path id="Path_11" fill-rule="evenodd" clip-rule="evenodd" d="M368.238 196.565V259.287H359.408V196.565H368.238Z" fill="#FFEBEF"/>
<path id="Path_12" fill-rule="evenodd" clip-rule="evenodd" d="M368.238 217.781V259.287H359.408V217.781H368.238Z" fill="#D083C9"/>
<path id="Path_13" fill-rule="evenodd" clip-rule="evenodd" d="M368.238 246.068V259.287H359.408V246.068H368.238Z" fill="#6D1E84"/>
</g>
<g id="Group 26_4">
<path id="Path_14" fill-rule="evenodd" clip-rule="evenodd" d="M389.431 178.885V259.287H380.601V178.885H389.431Z" fill="#FFEBEF"/>
<path id="Path_15" fill-rule="evenodd" clip-rule="evenodd" d="M389.431 200.101V259.287H380.601V200.101H389.431Z" fill="#D083C9"/>
<path id="Path_16" fill-rule="evenodd" clip-rule="evenodd" d="M389.431 228.389V259.287H380.601V228.389H389.431Z" fill="#6D1E84"/>
</g>
<g id="Group 26_5">
<path id="Path_17" fill-rule="evenodd" clip-rule="evenodd" d="M410.623 164.741V259.287H401.793V164.741H410.623Z" fill="#FFEBEF"/>
<path id="Path_18" fill-rule="evenodd" clip-rule="evenodd" d="M410.623 193.029V259.287H401.793V193.029H410.623Z" fill="#D083C9"/>
<path id="Path_19" fill-rule="evenodd" clip-rule="evenodd" d="M410.623 235.461V259.287H401.793V235.461H410.623Z" fill="#6D1E84"/>
</g>
<g id="Group 26_6">
<path id="Path_20" fill-rule="evenodd" clip-rule="evenodd" d="M431.816 185.957V259.287H422.985V185.957H431.816Z" fill="#FFEBEF"/>
<path id="Path_21" fill-rule="evenodd" clip-rule="evenodd" d="M431.816 207.173V259.287H422.985V207.173H431.816Z" fill="#D083C9"/>
<path id="Path_22" fill-rule="evenodd" clip-rule="evenodd" d="M431.816 239.704V259.287H422.985V239.704H431.816Z" fill="#6D1E84"/>
</g>
<g id="Group 26_7">
<path id="Path_23" fill-rule="evenodd" clip-rule="evenodd" d="M453.008 193.029V259.287H444.178V193.029H453.008Z" fill="#FFEBEF"/>
<path id="Path_24" fill-rule="evenodd" clip-rule="evenodd" d="M453.008 207.173V259.287H444.178V207.173H453.008Z" fill="#D083C9"/>
<path id="Path_25" fill-rule="evenodd" clip-rule="evenodd" d="M453.008 234.753V259.287H444.178V234.753H453.008Z" fill="#6D1E84"/>
</g>
<g id="Group 26_8">
<path id="Path_26" fill-rule="evenodd" clip-rule="evenodd" d="M474.2 178.885V259.287H465.37V178.885H474.2Z" fill="#FFEBEF"/>
<path id="Path_27" fill-rule="evenodd" clip-rule="evenodd" d="M474.2 207.173V259.287H465.37V207.173H474.2Z" fill="#D083C9"/>
<path id="Path_28" fill-rule="evenodd" clip-rule="evenodd" d="M474.2 241.825V259.287H465.37V241.825H474.2Z" fill="#6D1E84"/>
</g>
<g id="Group 26_9">
<path id="Path_29" fill-rule="evenodd" clip-rule="evenodd" d="M495.393 193.029V259.287H486.562V193.029H495.393Z" fill="#FFEBEF"/>
<path id="Path_30" fill-rule="evenodd" clip-rule="evenodd" d="M495.393 207.173V259.287H486.562V207.173H495.393Z" fill="#D083C9"/>
<path id="Path_31" fill-rule="evenodd" clip-rule="evenodd" d="M495.393 241.825V259.287H486.562V241.825H495.393Z" fill="#6D1E84"/>
</g>
<path id="Rectangle_14" opacity="0.57573" fill-rule="evenodd" clip-rule="evenodd" d="M314.197 145.646C314.197 144.475 315.147 143.525 316.319 143.525H386.956C388.127 143.525 389.077 144.475 389.077 145.646V145.646C389.077 146.818 388.127 147.768 386.956 147.768H316.319C315.147 147.768 314.197 146.818 314.197 145.646V145.646Z" fill="#8C81FF"/>
<rect id="Rectangle_15" x="314.197" y="131.502" width="39.5593" height="4.2432" rx="2.1216" fill="#6D1E84"/>
</g>
<g id="Chair4">
<path id="Path_32" fill-rule="evenodd" clip-rule="evenodd" d="M558.041 449.882L569.484 540.29L563.485 540.21L552.042 450.728L558.041 449.882Z" fill="#EFB5EA"/>
<path id="Path_33" fill-rule="evenodd" clip-rule="evenodd" d="M480.618 464.093C475.402 464.093 471.173 459.864 471.173 454.648V454.648C471.173 449.431 475.402 445.203 480.618 445.203H518.38C524.102 445.203 528.884 440.849 529.42 435.153L535.458 370.96C535.993 365.263 540.775 360.91 546.497 360.91H570.197C576.655 360.91 581.747 366.408 581.252 372.848L575.028 453.854C574.584 459.632 569.767 464.093 563.973 464.093H480.618Z" fill="#A46AE9"/>
<path id="Combined Shape" fill-rule="evenodd" clip-rule="evenodd" d="M471.175 454.567C471.227 454.568 471.279 454.568 471.331 454.568H554.461C560.254 454.568 565.071 450.108 565.516 444.332L571.736 363.614C571.803 362.734 571.767 361.872 571.637 361.038C571.085 360.954 570.52 360.91 569.943 360.91H546.354C540.634 360.91 535.853 365.262 535.315 370.957L529.282 434.916C528.745 440.611 523.964 444.963 518.243 444.963H480.594C475.391 444.963 471.173 449.181 471.173 454.384C471.173 454.445 471.173 454.506 471.175 454.567Z" fill="#EFB5EA"/>
</g>
<g id="Wom1.4">
<g id="Head">
<path id="Path_34" fill-rule="evenodd" clip-rule="evenodd" d="M545.276 345.34C557.474 342.498 558.278 325.746 549.004 319.935C558.568 299.875 536.451 279.958 521.301 292.241C511.369 287.987 503.115 304.586 512.357 317.478C508.482 339.613 516.368 345.335 530.584 345.578L545.276 345.34Z" fill="#422851"/>
<path id="Path_35" fill-rule="evenodd" clip-rule="evenodd" d="M545.125 341.339C545.125 341.339 539.191 339.946 538.985 330.217C538.779 320.489 538.923 317.169 538.923 317.169L525.853 316.933C525.853 316.933 525.711 327.774 525.709 331.696C525.703 342.229 518.368 341.339 518.368 341.339C518.368 341.339 519.893 349.88 531.736 350.546C540.983 351.067 545.125 341.339 545.125 341.339Z" fill="url(#paint0_linear)"/>
<path id="Path_36" fill-rule="evenodd" clip-rule="evenodd" d="M541.97 312.311C547.801 312.085 546.85 320.625 540.793 320.614C540.793 320.614 537.275 332.746 525.061 332.746C515.141 332.746 514.496 318.606 514.406 315.785C514.309 312.777 514.297 302.896 514.297 302.896L542.197 302.883L541.97 312.311Z" fill="url(#paint1_linear)"/>
<path id="Path_37" d="M527.416 324.596C527.416 324.596 524.506 327.06 521.137 324.752" stroke="#F77B7B" stroke-width="1.5" stroke-linecap="round"/>
<path id="Path_38" d="M525.495 327.45C524.59 327.868 523.718 327.898 522.94 327.481" stroke="#F49494" stroke-linecap="round"/>
<path id="Path 8" d="M541.376 316.904C541.316 315.534 541.733 314.446 543.13 314.227" stroke="#F77B7B" stroke-linecap="round"/>
<path id="Path_39" fill-rule="evenodd" clip-rule="evenodd" d="M542.893 311.256C542.893 311.256 539.697 315.546 539.049 315.569C538.402 315.592 538.175 309.989 538.175 309.989C534.255 309.689 524.333 307.712 521.901 303.107C520.2 307.171 516.949 308.975 514.813 308.629L514.408 317.262L513.411 299.906H543.674L542.893 311.256Z" fill="#422851"/>
</g>
<g id="LLeg">
<path id="Path_40" fill-rule="evenodd" clip-rule="evenodd" d="M485.405 512.891C485.405 512.891 490.636 523.462 486.348 526.793C482.053 530.125 470.709 536.368 470.709 536.368L500.763 534.478L494.082 511.424L485.405 512.891Z" fill="url(#paint2_linear)"/>
<path id="Path_41" fill-rule="evenodd" clip-rule="evenodd" d="M497.856 522.951C496.373 523.125 497.956 528.121 494.745 528.501C491.54 528.88 489.983 524.147 486.346 525.647C482.709 527.148 469.445 534.906 468.923 538.078C468.394 541.249 473.336 542.182 480.113 541.466C486.89 540.75 488.14 538.337 493.227 539.309C498.308 540.28 502.115 538.732 501.947 535.017C501.78 531.303 499.339 522.778 497.856 522.951Z" fill="#222D4E"/>
<path id="Path 14" fill-rule="evenodd" clip-rule="evenodd" d="M484.687 526.417L485.347 527.407C485.671 527.893 485.512 528.551 485.003 528.835L476.037 533.841C475.746 534.003 475.394 534.01 475.097 533.86L473.705 533.153C475.891 531.569 477.678 530.379 479.654 529.21C481.17 528.313 482.849 527.388 484.687 526.417Z" fill="white" fill-opacity="0.540975"/>
<path id="Path_42" fill-rule="evenodd" clip-rule="evenodd" d="M530.677 419.725C521.579 420.131 470.939 431.338 461.739 433.242C452.538 435.146 444.76 445.448 451.776 457.377C459.655 470.768 479.987 508.799 484.923 517.373C487.366 521.616 499.692 519.237 496.797 512.115C491.4 498.838 488.893 465.485 475.132 453.324C475.132 453.324 521.409 461.382 541.399 452.152C555.927 445.442 552.64 418.742 530.677 419.725Z" fill="url(#paint3_linear)"/>
</g>
<g id="LArm">
<path id="Path_43" fill-rule="evenodd" clip-rule="evenodd" d="M466.21 365.893C466.21 365.893 466.313 358.486 463.724 354.615C461.134 350.744 461.031 346.632 459.071 346.766C457.111 346.901 459.052 356.458 459.052 356.458C459.052 356.458 456.565 355.508 454.779 354.306C452.992 353.103 447.575 347.176 446.31 348.226C444.163 350.016 447.62 360.111 449.503 362.129C451.392 364.148 461.712 370.787 461.712 370.787L466.21 365.893Z" fill="url(#paint4_linear)"/>
<path id="Path_44" fill-rule="evenodd" clip-rule="evenodd" d="M522.124 361.454C517.891 371.276 510.142 389.32 506.947 394.703C502.943 401.444 496.63 404.414 489.238 399.413C481.47 394.157 460.083 373.657 459.456 369.014C458.834 364.37 464.069 358.799 468.806 361.683C473.542 364.568 493.224 380.956 493.224 380.956C493.224 380.956 501.167 360.583 507.557 348.782C513.09 338.572 528.566 346.523 522.124 361.454Z" fill="#6A5EE3"/>
<path id="Path_45" fill-rule="evenodd" clip-rule="evenodd" d="M493.142 380.966C493.142 380.966 491.008 388.206 490.51 387.787C490.011 387.368 490.891 379.074 490.891 379.074L493.142 380.966Z" fill="black" fill-opacity="0.302803"/>
</g>
<g id="Body">
<path id="Path_46" fill-rule="evenodd" clip-rule="evenodd" d="M564.422 349.62C564.422 349.62 554.222 383.791 553.92 390.259C553.618 396.728 562.262 415.74 560.791 420.545C557.397 431.65 514.074 436.431 512.419 421.493C511.647 414.526 513.253 408.273 511.402 400.064C509.558 391.855 502.144 379.657 506.349 368.188C510.554 356.719 509.427 346.109 512.435 344.103C515.443 342.098 522.474 339.968 522.474 339.968C525.893 345.002 537.436 344.929 542.943 339.613C542.943 339.613 556.626 342.269 564.422 349.62Z" fill="#7367F0"/>
<path id="Path_47" fill-rule="evenodd" clip-rule="evenodd" d="M555.282 355.154C548.483 365.949 548.504 384.745 544.852 387.206C541.201 389.668 526.989 387.252 526.989 389.202C526.989 391.151 546.629 409.016 543.405 417.557C541.717 422.029 542.175 426.029 544.779 429.559L545.629 429.373C553.367 427.624 559.588 424.482 560.791 420.545C562.262 415.74 552.621 396.728 552.923 390.259C553.18 384.768 561.286 359.316 563.731 351.748C561.741 348.234 558.925 349.37 555.282 355.154Z" fill="black" fill-opacity="0.199355"/>
</g>
<g id="RArm">
<path id="Path_48" fill-rule="evenodd" clip-rule="evenodd" d="M543.688 383.794C543.688 383.794 535.098 376.187 532.468 375.304C529.838 374.421 514.435 373.36 514.533 375.355C514.643 377.493 522.916 377.37 523.773 378.421C524.63 379.472 524.825 386.659 528.065 387.465C531.299 388.272 540.994 389.663 540.994 389.663L543.688 383.794Z" fill="url(#paint5_linear)"/>
<path id="Path_49" fill-rule="evenodd" clip-rule="evenodd" d="M566.544 351.583C575.595 364.364 583.322 383.833 586.289 391.423C589.255 399.013 586.263 410.462 573.219 408.214C560.2 405.973 539.484 393.792 537.192 390.239C534.9 386.686 538.382 380.221 542.767 381.067C546.83 381.85 566.98 390.423 566.98 390.423C566.98 390.423 554.017 367.432 550.851 361.269C545.563 350.976 558.571 340.322 566.544 351.583Z" fill="#6A5EE3"/>
<path id="Path_50" fill-rule="evenodd" clip-rule="evenodd" d="M566.775 390.265C566.775 390.265 573.565 393.641 572.737 392.225C571.909 390.81 564.184 385.837 564.184 385.837L566.775 390.265Z" fill="black" fill-opacity="0.302803"/>
</g>
</g>
<g id="Men3.2">
<g id="LLeg_2">
<path id="Path_51" fill-rule="evenodd" clip-rule="evenodd" d="M234.062 509.194C234.062 509.194 233.926 517.906 239.272 521C244.618 524.095 252.901 529.844 252.901 529.844L221.393 530.913L222.291 509.116L234.062 509.194Z" fill="#F8CFCF"/>
<path id="Path_52" fill-rule="evenodd" clip-rule="evenodd" d="M220.293 518.794L219.78 532.926H227.099L227.6 531.105C227.6 531.105 230.356 530.992 231.948 531.779C233.631 532.61 233.857 533.014 233.857 533.014L257.071 533.063C257.071 533.063 258.216 528.495 251.14 525.191C244.064 521.887 238.911 517.197 237.933 516.717C236.947 516.233 234.958 515.96 233.557 517.096C232.157 518.232 231.049 521.219 227.875 521.312C223.79 521.433 221.443 516.404 220.293 518.794Z" fill="#4B4B4B"/>
<path id="Path 38" d="M240.131 518.25L237.725 520.577" stroke="white" stroke-width="2" stroke-linecap="round"/>
<path id="Path 38_2" d="M243.641 520.014L241.234 522.342" stroke="white" stroke-width="2" stroke-linecap="round"/>
<path id="Path 38_3" d="M247.15 521.779L244.743 524.107" stroke="white" stroke-width="2" stroke-linecap="round"/>
<path id="Path_53" fill-rule="evenodd" clip-rule="evenodd" d="M211.001 321C211.001 321 219.754 417.38 220.027 424.079C220.299 430.779 217.215 442.342 217.275 454.874C217.335 467.406 218.401 511.575 218.401 511.575L237.711 511.984C237.711 511.984 245.826 432.167 245.914 420.198C246.001 408.229 246.745 322.152 246.745 322.152L211.001 321Z" fill="#383838"/>
<path id="Path_54" opacity="0.283552" fill-rule="evenodd" clip-rule="evenodd" d="M224.92 427.079L224.941 427.318C225.232 431.404 222.694 444.846 217.328 467.645L217.275 454.874V454.874C217.216 442.565 220.19 431.192 220.038 424.443L220.027 424.079C219.935 421.822 218.88 409.379 217.522 393.872L218.156 396.143C221.879 409.595 224.133 419.908 224.92 427.079Z" fill="white" fill-opacity="0.192499"/>
</g>
<g id="RLeg">
<path id="Path_55" fill-rule="evenodd" clip-rule="evenodd" d="M187.479 507.966L183.755 530.525L197.483 530.456L197.917 507.613L187.479 507.966Z" fill="#F8CFCF"/>
<path id="Path_56" fill-rule="evenodd" clip-rule="evenodd" d="M186.002 517.724C184.658 518.015 183.684 519.182 183.639 520.556L183.528 523.91C181.586 526.064 180.669 532.287 180.572 532.977C180.566 533.02 180.562 533.061 180.567 533.105C180.851 536.154 200.821 536.116 202.696 533.249C202.781 533.118 202.787 532.963 202.762 532.809C202.552 531.538 201.436 525.385 199.291 523.707L199.278 520.384C199.273 519.031 198.363 517.849 197.056 517.498L194.993 516.944C192.986 514.017 190.251 514.121 187.908 517.31L186.002 517.724Z" fill="#4B4B4B"/>
<path id="Path 39" d="M188.688 519.748H194.245" stroke="white" stroke-width="2" stroke-linecap="round"/>
<path id="Path 39_2" d="M188.688 522.393H194.245" stroke="white" stroke-width="2" stroke-linecap="round"/>
<path id="Path 39_3" d="M189.571 525.037H193.361" stroke="white" stroke-width="2" stroke-linecap="round"/>
<path id="Path_57" fill-rule="evenodd" clip-rule="evenodd" d="M194.402 322.265C194.402 322.265 188.269 388.331 188.352 400.982C188.435 413.635 190.24 419.191 187.672 428.267C185.103 437.343 182.913 509.786 182.913 509.786L201.904 511.864C201.904 511.864 214.037 434.346 215.356 423.599C216.675 412.851 232.981 321.353 232.981 321.353L194.402 322.265Z" fill="#2E2E2E"/>
<path id="Path_58" opacity="0.283552" fill-rule="evenodd" clip-rule="evenodd" d="M199.532 367.105L198.374 371.298C194.982 383.673 191.851 396.76 192.671 415.455L192.711 416.309C192.912 420.358 190.336 443.861 184.982 486.816L184.473 489.835C183.947 492.915 183.48 495.542 183.07 497.717L183.187 493.913C183.869 472.914 185.706 435.215 187.672 428.267C190.24 419.191 188.436 413.635 188.352 400.982C188.294 392.126 191.282 357.097 193.08 336.877L194.403 322.265L202.419 322.076L202.439 324.326C202.58 345.099 201.611 359.358 199.532 367.105V367.105Z" fill="white" fill-opacity="0.192499"/>
</g>
<g id="LArm_2">
<g id="Group 6">
<path id="Path_59" fill-rule="evenodd" clip-rule="evenodd" d="M287.836 240.566C287.836 240.566 286.251 231.828 286.821 230.058C287.308 228.529 291.91 226.324 291.91 226.324C291.91 226.324 299.914 213.818 301.666 215.091C303.091 216.123 297.498 225.343 297.498 225.343C297.498 225.343 302.598 230.636 302.527 233.002C302.456 235.368 294.202 242.774 294.202 242.774L287.836 240.566Z" fill="#F8CFCF"/>
<path id="Path_60" fill-rule="evenodd" clip-rule="evenodd" d="M292.082 226.198C292.082 226.198 295.627 225.721 296.191 226.812C296.672 227.742 293.727 230.379 293.727 231.12C293.727 231.861 293.769 237.472 294.006 237.523C294.243 237.574 297.557 228.367 296.85 226.42C296.268 224.821 292.082 226.198 292.082 226.198Z" fill="#F28585"/>
</g>
<path id="Path_61" fill-rule="evenodd" clip-rule="evenodd" d="M245.547 251.684C236.262 243.662 222.319 258.124 237.866 271.569C243.798 276.699 262.429 289.493 266.997 292.307C274.268 296.785 280.243 292.744 282.698 285.697C284.781 279.723 297.24 247.743 295.654 243.046C294.621 239.982 289.072 237.001 286.287 239.412C282.217 242.935 269.767 273.839 269.767 273.839C269.767 273.839 256.105 260.805 245.547 251.684Z" fill="#877BFF"/>
<path id="Path_62" fill-rule="evenodd" clip-rule="evenodd" d="M269.767 273.839C269.767 273.839 273.844 278.786 274.139 278.03C274.433 277.275 270.905 270.918 270.905 270.918L269.767 273.839Z" fill="black" fill-opacity="0.159856"/>
<path id="Path 41" d="M285.205 241.393C288.445 239.893 291.984 241.748 293.934 244.724" stroke="#5386BF" stroke-linecap="round"/>
</g>
<g id="Head_2">
<path id="Path_63" fill-rule="evenodd" clip-rule="evenodd" d="M205.742 242.431C205.742 242.431 211.08 241.203 211.266 232.628C211.451 224.053 211.321 221.126 211.321 221.126L223.977 220.918C223.977 220.918 224.104 230.474 224.107 233.931C224.111 241.457 229.812 243.49 229.812 243.49C229.812 243.49 229.339 251.718 218.684 252.306C210.365 252.765 205.742 242.431 205.742 242.431Z" fill="#F8C5C5"/>
<g id="Head1">
<path id="Path_64" fill-rule="evenodd" clip-rule="evenodd" d="M235.252 211.881L234.97 219.986C237.361 217.23 238.977 213.814 239.455 209.432L235.252 211.881Z" fill="url(#paint6_linear)"/>
<path id="Path_65" fill-rule="evenodd" clip-rule="evenodd" d="M210.159 216.791C204.914 216.592 205.769 224.12 211.219 224.11C211.219 224.11 217.075 235.654 226.269 235.683C230.697 235.698 232.143 231.831 233.471 229.116C234.799 226.401 235.773 222.34 235.854 219.853C235.941 217.202 235.952 208.493 235.952 208.493L209.955 208.481L210.159 216.791Z" fill="#F8CFCF"/>
<path id="Path_66" fill-rule="evenodd" clip-rule="evenodd" d="M235.952 212.489H217.669C217.477 215.728 216.379 218.417 213.593 220.401C213.672 225.146 215.291 228.6 218.099 231.023C220.543 224.155 235.496 226.034 234.408 230.515C232.123 239.929 210.708 240.142 212.007 218.476C211.153 217.334 208.098 217.12 207.092 218.262C205.374 213.529 206.107 206.832 211.075 205.864C207.175 195.777 260.197 193.643 235.952 212.489Z" fill="#424242"/>
<path id="Path_67" d="M224.237 230.099C224.237 230.099 226.62 231.815 229.755 229.939" stroke="#CC6969" stroke-linecap="round"/>
<path id="Path 8_2" d="M210.978 221.089C211.031 219.881 210.656 218.922 209.399 218.729" stroke="#DE6767" stroke-linecap="round"/>
</g>
</g>
<g id="Body_2">
<path id="Path_68" fill-rule="evenodd" clip-rule="evenodd" d="M208.09 241L223.193 250.796L230.003 242.887C230.003 242.887 244.349 247.327 247.011 252.518C250.851 260.008 245.791 320.022 247.997 323.643C252.698 331.36 246.448 336.658 225.758 338.604C205.068 340.55 186.713 338.957 190.043 328.658C193.375 318.359 180.52 251.147 191.853 247.445C195.394 246.288 208.09 241 208.09 241Z" fill="#7367F0"/>
<path id="Path_69" fill-rule="evenodd" clip-rule="evenodd" d="M197.898 259.529C198.813 261.144 198.341 266.737 196.484 276.309C194.901 284.464 196.711 292.899 201.488 299.705L201.757 300.081C203.372 302.311 204.862 305.247 206.225 308.889C209.569 317.82 201.856 325.266 207.767 339.239L207.052 339.205C195.456 338.606 187.791 335.623 190.043 328.658C192.775 320.214 184.625 273.51 187.848 254.921C193.427 256.015 196.777 257.551 197.898 259.529Z" fill="black" fill-opacity="0.159856"/>
<path id="Path_70" fill-rule="evenodd" clip-rule="evenodd" d="M208.09 241L221.599 249.795C219.619 252.093 218.557 254.766 218.156 257.709C212.964 253.656 207.568 247.992 205.896 241.902L208.09 241Z" fill="#5E54C7"/>
<path id="Path_71" fill-rule="evenodd" clip-rule="evenodd" d="M224.261 249.566C226.545 251.109 228.367 253.839 229.851 256.944C231.629 253.376 232.31 248.664 232.31 243.639L230.079 242.759L224.261 249.566Z" fill="#5E54C7"/>
<path id="Path_72" fill-rule="evenodd" clip-rule="evenodd" d="M221.599 249.794L221.775 249.893C222.585 250.344 223.595 250.211 224.26 249.566V249.566C229.353 268.207 232.935 288.724 234.018 309.576L228.703 318.39L222.486 310.141C223.296 288.47 223.29 267.339 221.599 249.794Z" fill="#CBC6FF"/>
</g>
<g id="RArm_2">
<g id="Example Book Back">
<g id="Group 3">
<path id="Rectangle_16" d="M235.083 296.99C235.23 295.598 236.505 294.607 237.89 294.81L250.196 296.609C251.504 296.8 252.428 297.99 252.29 299.304L250.082 320.318C249.935 321.71 248.66 322.701 247.275 322.499L234.969 320.7C233.661 320.509 232.737 319.319 232.875 318.004L235.083 296.99Z" fill="#6182EC"/>
<path id="Rectangle_17" fill-rule="evenodd" clip-rule="evenodd" d="M236.549 296.567C236.7 295.128 238.053 294.128 239.473 294.407L252.34 296.93L261.145 296.783C262.624 296.758 263.792 298.033 263.637 299.504L261.432 320.486C261.302 321.724 260.268 322.671 259.023 322.692L249.616 322.849L236.318 320.241C235.066 319.995 234.208 318.834 234.342 317.565L236.549 296.567Z" fill="#96EFFA"/>
<path id="Rectangle_18" d="M238.873 301.487C238.971 300.561 239.836 299.913 240.752 300.081L246.658 301.161C247.481 301.312 248.048 302.071 247.961 302.902L247.709 305.297C247.612 306.223 246.747 306.871 245.83 306.703L239.925 305.622C239.102 305.472 238.534 304.713 238.622 303.881L238.873 301.487Z" fill="#74CFDB"/>
<path id="Rectangle_19" d="M251.358 297.631C251.404 297.192 251.798 296.873 252.237 296.919L252.754 296.974C253.193 297.02 253.512 297.414 253.466 297.853L250.918 322.097C250.872 322.536 250.478 322.855 250.039 322.809L249.522 322.755C249.082 322.708 248.763 322.315 248.81 321.875L251.358 297.631Z" fill="#EAEFFF"/>
<path id="Rectangle_20" d="M252.06 297.705C252.106 297.266 252.5 296.947 252.939 296.993L253.456 297.048C253.896 297.094 254.214 297.487 254.168 297.927L251.62 322.171C251.574 322.61 251.18 322.929 250.741 322.883L250.224 322.828C249.784 322.782 249.466 322.389 249.512 321.949L252.06 297.705Z" fill="#7AD2DD"/>
</g>
</g>
<path id="Path_73" fill-rule="evenodd" clip-rule="evenodd" d="M221.892 306.414C221.892 306.414 226.478 305.498 228.355 304.033C230.232 302.569 235.917 301.534 235.917 301.534L234.098 305.34C234.098 305.34 248.03 304.04 248.36 305.406C248.691 306.771 244.661 308.256 244.661 308.256C244.661 308.256 242.674 311.944 240.75 314.082C238.929 316.105 229.886 315.864 226.716 314.602C223.977 313.511 220.998 314.056 220.998 314.056L221.892 306.414Z" fill="#F8CFCF"/>
<path id="Path_74" fill-rule="evenodd" clip-rule="evenodd" d="M185.003 253.239C189.985 242.542 207.043 249.749 202.744 261.209C198.58 272.31 188.491 298.23 188.491 298.23C188.491 298.23 220.463 302.263 222.955 304.144C226.28 306.653 224.225 313.813 221.399 315.088C219.008 316.166 201.246 316.796 183.867 315.435C175.27 314.762 168.912 311.092 168.025 301.559C167.403 294.883 180.203 263.544 185.003 253.239Z" fill="#877BFF"/>
<path id="Path_75" fill-rule="evenodd" clip-rule="evenodd" d="M188.502 298.224C188.502 298.224 185.845 303.243 186.604 303.345C187.364 303.448 191.225 298.591 191.225 298.591L188.502 298.224Z" fill="black" fill-opacity="0.159856"/>
<path id="Path 40" d="M220.705 303.599C221.69 306.727 220.998 310.395 219.63 312.988" stroke="#5386BF" stroke-linecap="round"/>
</g>
</g>
<g id="Vase2">
<g id="Group 39">
<path id="Rectangle_21" fill-rule="evenodd" clip-rule="evenodd" d="M85.3648 443.346V443.346C93.6308 439.634 103.338 443.361 106.998 451.65L109.86 458.135V458.135C101.594 461.847 91.8866 458.12 88.2274 449.831L85.3648 443.346Z" fill="#02D3AF"/>
<path id="Path_76" fill-rule="evenodd" clip-rule="evenodd" d="M97.1761 447.302C105.425 453.172 110.775 459.714 113.24 466.926C115.717 474.173 116.732 486.321 116.271 503.347C116.264 503.61 116.47 503.83 116.731 503.837C116.993 503.844 117.211 503.637 117.218 503.373C117.681 486.241 116.659 473.996 114.135 466.614C111.6 459.197 106.123 452.5 97.7221 446.521C97.5084 446.369 97.213 446.421 97.0622 446.636C96.9115 446.852 96.9625 447.15 97.1761 447.302Z" fill="#02B596"/>
<path id="Rectangle_22" fill-rule="evenodd" clip-rule="evenodd" d="M155.49 439.32V439.32C147.355 435.494 137.661 439.022 133.888 447.182L130.674 454.133V454.133C138.809 457.959 148.504 454.431 152.276 446.271L155.49 439.32Z" fill="#02D3AF"/>
<g id="Group 88">
<path id="Rectangle_23" d="M90.499 423.385V423.385C98.3429 421.718 106.053 426.725 107.721 434.569L109.07 440.919V440.919C101.226 442.586 93.5161 437.579 91.8488 429.735L90.499 423.385Z" fill="#02D3AF"/>
<path id="Path_77" fill-rule="evenodd" clip-rule="evenodd" d="M96.2673 428.452C102.313 432.672 106.402 437.223 108.547 442.099L108.679 442.406L108.812 442.729C111.01 448.185 114.648 462.475 119.708 485.545C119.764 485.802 120.017 485.966 120.272 485.91C120.528 485.854 120.689 485.599 120.633 485.342L120.006 482.496L119.273 479.202C114.703 458.761 111.421 446.281 109.413 441.715C107.19 436.662 102.984 431.981 96.8048 427.667C96.5895 427.517 96.2945 427.571 96.1461 427.787C95.9976 428.004 96.0519 428.301 96.2673 428.452Z" fill="#02B596"/>
</g>
<path id="Rectangle_24" fill-rule="evenodd" clip-rule="evenodd" d="M143.625 418.56V418.56C134.98 418.408 127.849 425.294 127.7 433.94L127.566 441.653V441.653C136.211 441.805 143.342 434.919 143.492 426.273L143.625 418.56Z" fill="#02D3AF"/>
<path id="Path_78" fill-rule="evenodd" clip-rule="evenodd" d="M137.952 421.662C132.391 429.822 128.327 437.699 125.764 445.293C123.204 452.874 120.651 464.581 118.101 480.424C118.059 480.684 118.234 480.93 118.492 480.972C118.751 481.014 118.994 480.837 119.036 480.577L119.349 478.651L119.564 477.353C121.931 463.186 124.297 452.6 126.66 445.601C129.194 438.095 133.218 430.295 138.732 422.203C138.88 421.985 138.826 421.688 138.61 421.539C138.395 421.389 138.1 421.444 137.952 421.662Z" fill="#02B596"/>
<g id="Group 87">
<path id="Path_79" fill-rule="evenodd" clip-rule="evenodd" d="M125.907 416.316C125.907 416.316 121.397 429.164 119.403 448.089C117.41 467.013 118.573 485.938 118.573 485.938L120.774 486.138C120.774 486.138 119.592 464.05 121.011 448.172C122.431 432.294 127.007 416.416 127.007 416.416L125.907 416.316Z" fill="#02B596"/>
<ellipse id="Oval_6" cx="128.203" cy="409.952" rx="7.26372" ry="11.1372" transform="rotate(14 128.203 409.952)" fill="#C2FFF4"/>
<ellipse id="Oval_7" cx="128.349" cy="410.625" rx="5.05298" ry="7.26093" transform="rotate(14 128.349 410.625)" fill="#02D3AF"/>
<path id="Path_80" fill-rule="evenodd" clip-rule="evenodd" d="M127.727 417.005L131.785 404.341C132.027 403.588 131.617 402.781 130.87 402.538C130.124 402.294 129.323 402.707 129.082 403.46L125.024 416.124C124.783 416.877 125.193 417.685 125.939 417.928C126.686 418.171 127.486 417.758 127.727 417.005Z" fill="url(#paint7_linear)"/>
</g>
<g id="Group 87_2">
<path id="Path_81" fill-rule="evenodd" clip-rule="evenodd" d="M103.952 403.586C103.952 403.586 109.78 415.892 113.741 434.505C117.702 453.117 118.523 472.06 118.523 472.06L116.355 472.489C116.355 472.489 115.222 450.399 112.151 434.756C109.079 419.113 102.868 403.801 102.868 403.801L103.952 403.586Z" fill="#02B596"/>
<ellipse id="Oval_8" rx="7.26372" ry="11.1372" transform="matrix(-0.939693 0.34202 0.34202 0.939693 101.003 397.496)" fill="#C2FFF4"/>
<ellipse id="Oval_9" rx="5.05298" ry="7.26093" transform="matrix(-0.939693 0.34202 0.34202 0.939693 100.929 398.181)" fill="#02D3AF"/>
<path id="Path_82" fill-rule="evenodd" clip-rule="evenodd" d="M102.214 404.462L96.8542 392.291C96.5356 391.568 96.8585 390.722 97.5755 390.402C98.2924 390.082 99.1319 390.409 99.4505 391.132L104.81 403.303C105.128 404.026 104.806 404.872 104.089 405.192C103.372 405.512 102.532 405.185 102.214 404.462Z" fill="url(#paint8_linear)"/>
</g>
<path id="Path_83" fill-rule="evenodd" clip-rule="evenodd" d="M151.021 441.348C139.793 445.742 131.965 450.819 127.538 456.599C123.112 462.378 120.187 471.341 118.745 483.49C118.714 483.752 118.899 483.99 119.158 484.021C119.418 484.053 119.654 483.866 119.685 483.604C121.109 471.611 123.983 462.803 128.287 457.183C132.592 451.563 140.283 446.575 151.363 442.239C151.607 442.143 151.728 441.867 151.633 441.621C151.539 441.375 151.265 441.253 151.021 441.348Z" fill="#02B596"/>
</g>
<g id="Group 38">
<path id="Path 151" fill-rule="evenodd" clip-rule="evenodd" d="M120.931 476.595C115.6 457.598 94.5479 463.157 94.5479 463.157C94.5479 463.157 110.309 468.308 118.347 476.595H120.931Z" fill="#02B596"/>
<path id="Path 151_2" fill-rule="evenodd" clip-rule="evenodd" d="M120.876 473.677C126.207 454.68 143.976 457.458 143.976 457.458C143.976 457.458 133.184 466.329 123.459 473.677H120.876Z" fill="#02B596"/>
<path id="Path 151_3" fill-rule="evenodd" clip-rule="evenodd" d="M120.837 477.453C116.071 460.599 127.188 446.092 127.188 446.092C127.188 446.092 126.625 466.052 122.761 476.222L120.837 477.453Z" fill="#02B596"/>
<path id="Path 114" fill-rule="evenodd" clip-rule="evenodd" d="M116.174 473.677C114.067 467.587 111.971 459.082 110.4 450.837C118.163 453.959 120.657 466.397 118.163 473.677H116.174Z" fill="#02D3AF"/>
<g id="Group 89">
<path id="Rectangle_25" fill-rule="evenodd" clip-rule="evenodd" d="M101.024 469.762C100.921 468.584 101.849 467.571 103.032 467.571H133.684C134.866 467.571 135.795 468.584 135.692 469.762L129.785 537.355C129.694 538.396 128.822 539.195 127.777 539.195H108.939C107.893 539.195 107.021 538.396 106.93 537.355L101.024 469.762Z" fill="#8948D7"/>
<mask id="mask1" mask-type="alpha" maskUnits="userSpaceOnUse" x="101" y="467" width="35" height="73">
<path id="Rectangle_26" fill-rule="evenodd" clip-rule="evenodd" d="M101.024 469.762C100.921 468.584 101.849 467.571 103.032 467.571H133.684C134.866 467.571 135.795 468.584 135.692 469.762L129.785 537.355C129.694 538.396 128.822 539.195 127.777 539.195H108.939C107.893 539.195 107.021 538.396 106.93 537.355L101.024 469.762Z" fill="white"/>
</mask>
<g mask="url(#mask1)">
<path id="Rectangle_27" fill-rule="evenodd" clip-rule="evenodd" d="M96.4111 463.099H109.355C101.334 493.552 125.481 514.488 109.355 544.941H96.4111V463.099Z" fill="#B47EF4"/>
</g>
</g>
</g>
</g>
<g id="Chair4_2">
<path id="Path 25" fill-rule="evenodd" clip-rule="evenodd" d="M678.748 449.882L667.305 540.29L673.304 540.21L684.747 450.728L678.748 449.882Z" fill="#EFB5EA"/>
<path id="Path_84" fill-rule="evenodd" clip-rule="evenodd" d="M645.448 449.882L634.005 540.29L640.005 540.21L651.448 450.728L645.448 449.882Z" fill="#EFB5EA"/>
<path id="Path_85" fill-rule="evenodd" clip-rule="evenodd" d="M718.496 449.882L729.938 540.29L723.939 540.21L712.496 450.728L718.496 449.882Z" fill="#EFB5EA"/>
<path id="Path_86" fill-rule="evenodd" clip-rule="evenodd" d="M641.072 464.093C635.856 464.093 631.627 459.864 631.627 454.648V454.648C631.627 449.431 635.856 445.203 641.072 445.203H678.835C684.556 445.203 689.338 440.849 689.874 435.153L695.912 370.96C696.447 365.263 701.229 360.91 706.951 360.91H730.651C737.11 360.91 742.201 366.408 741.706 372.848L735.482 453.854C735.038 459.632 730.221 464.093 724.427 464.093H641.072Z" fill="#A46AE9"/>
<path id="Combined Shape_2" fill-rule="evenodd" clip-rule="evenodd" d="M631.629 454.567C631.681 454.568 631.733 454.568 631.785 454.568H714.915C720.708 454.568 725.525 450.108 725.97 444.332L732.19 363.614C732.258 362.734 732.221 361.872 732.091 361.038C731.539 360.954 730.974 360.91 730.397 360.91H706.809C701.088 360.91 696.307 365.262 695.77 370.957L689.737 434.916C689.199 440.611 684.418 444.963 678.698 444.963H641.048C635.845 444.963 631.627 449.181 631.627 454.384C631.627 454.445 631.628 454.506 631.629 454.567Z" fill="#EFB5EA"/>
</g>
<g id="Wom2.4">
<g id="LLeg_3">
<path id="Path_87" fill-rule="evenodd" clip-rule="evenodd" d="M643.11 511.415C643.11 511.415 648.356 522.01 644.056 525.349C639.749 528.688 628.372 534.946 628.372 534.946L658.512 533.052L651.813 509.944L643.11 511.415Z" fill="url(#paint9_linear)"/>
<path id="Path_88" fill-rule="evenodd" clip-rule="evenodd" d="M655.526 521.003C654.578 521.455 656.137 525.712 652.8 525.413C649.464 525.115 647.37 520.714 644.909 521C642.448 521.285 640.886 525.717 636.202 528.803C631.518 531.89 624.573 535.572 625.038 538.675C625.504 541.779 636.433 542.61 641.969 541.582C647.506 540.556 650.091 538.33 653.683 538.507C657.275 538.685 659.532 538.245 660.658 535.939C661.784 533.632 656.621 520.48 655.526 521.003Z" fill="#EEDFE8"/>
<path id="Path_89" fill-rule="evenodd" clip-rule="evenodd" d="M655.26 535.167L654.953 535.149C650.501 534.774 647.447 537.574 643.21 538.363C638.972 539.153 627.796 539.426 626.012 536.775C625.927 536.65 625.849 536.521 625.776 536.391C625.176 537.128 624.894 537.917 625.039 538.836C625.504 541.789 636.434 542.58 641.971 541.603C647.508 540.626 650.093 538.507 653.685 538.676L654.324 538.7C657.547 538.788 659.603 538.294 660.661 536.232C660.919 535.729 660.861 534.649 660.603 533.283C659.1 534.311 657.204 535.226 655.26 535.167V535.167Z" fill="#EC7AA5"/>
<path id="Path_90" fill-rule="evenodd" clip-rule="evenodd" d="M688.513 418.032C679.388 418.439 628.603 429.672 619.376 431.58C610.149 433.488 602.349 443.814 609.384 455.772C617.287 469.194 637.677 507.314 642.627 515.907C645.077 520.16 657.439 517.775 654.535 510.636C649.122 497.329 646.608 463.898 632.808 451.709C632.808 451.709 679.218 459.786 699.265 450.534C713.835 443.808 710.539 417.047 688.513 418.032Z" fill="#413C75"/>
</g>
<g id="LArm_3">
<path id="Path_91" fill-rule="evenodd" clip-rule="evenodd" d="M624.861 361.074C624.861 361.074 624.964 355.65 622.367 351.77C619.77 347.89 619.667 343.768 617.701 343.903C615.736 344.038 617.682 353.618 617.682 353.618C617.682 353.618 615.188 352.665 613.396 351.46C611.605 350.255 606.172 344.314 604.903 345.367C602.751 347.16 606.218 357.279 608.106 359.302C610 361.326 619.35 366.98 619.35 366.98L646.884 394.719L651.001 379.993L624.861 361.074Z" fill="url(#paint10_linear)"/>
<path id="Path_92" fill-rule="evenodd" clip-rule="evenodd" d="M679.935 358.625C675.69 368.47 667.918 386.556 664.714 391.951C660.699 398.708 654.367 401.686 646.954 396.672C645.403 395.623 640.949 391.954 640.949 391.954C641.608 385.532 644.007 380.164 648.143 375.849L650.952 378.172C650.952 378.172 658.918 357.752 665.326 345.924C670.875 335.69 686.396 343.659 679.935 358.625Z" fill="#EA5455"/>
<path id="Path_93" fill-rule="evenodd" clip-rule="evenodd" d="M650.87 378.183C650.87 378.183 648.73 385.44 648.23 385.019C647.73 384.599 648.612 376.286 648.612 376.286L650.87 378.183Z" fill="black" fill-opacity="0.159856"/>
</g>
<g id="Head_3">
<path id="Path_94" fill-rule="evenodd" clip-rule="evenodd" d="M698.279 320.411V329.123L704.676 323.972C704.676 323.972 706.643 315.626 708.242 309.427C709.245 305.539 711.688 292.384 701.852 293C693.794 278.796 670.328 287.587 670.141 304.94C669.917 325.811 670.1 333.937 670.1 333.937C683.37 334.698 690.838 332.78 698.279 320.411Z" fill="#422851"/>
<path id="Path_95" fill-rule="evenodd" clip-rule="evenodd" d="M704.814 336.997C704.814 336.997 698.864 335.6 698.657 325.85C698.451 316.099 698.596 312.77 698.596 312.77L685.488 312.534C685.488 312.534 685.345 323.401 685.343 327.332C685.337 336.889 678.309 337.672 678.309 337.672C678.309 337.672 679.51 345.558 691.388 346.225C700.661 346.748 704.814 336.997 704.814 336.997Z" fill="url(#paint11_linear)"/>
<path id="Path_96" fill-rule="evenodd" clip-rule="evenodd" d="M701.651 307.901C707.499 307.675 706.545 316.235 700.471 316.224C700.471 316.224 696.943 328.384 684.693 328.384C674.745 328.384 674.098 314.211 674.008 311.383C673.911 308.369 673.899 298.465 673.899 298.465L701.879 298.452L701.651 307.901Z" fill="url(#paint12_linear)"/>
<path id="Path_97" fill-rule="evenodd" clip-rule="evenodd" d="M702.104 307.845C699.681 308.245 699.975 309.849 699.316 309.709C695.97 308.997 682.426 309.936 680.682 302.488C678.512 307.141 677.981 308.285 673.203 309.534V295.899L703.425 293C703.425 293 702.956 307.704 702.104 307.845Z" fill="#422851"/>
<path id="Path_98" d="M687.055 320.215C687.055 320.215 684.138 322.685 680.759 320.372" stroke="#F77B7B" stroke-width="1.5" stroke-linecap="round"/>
<path id="Path_99" d="M685.129 323.076C684.221 323.494 683.348 323.525 682.567 323.107" stroke="#F49494" stroke-linecap="round"/>
<path id="Path 8_3" d="M701.055 312.505C700.995 311.132 701.414 310.041 702.814 309.822" stroke="#F77B7B" stroke-linecap="round"/>
</g>
<g id="Body_3">
<path id="Path_100" fill-rule="evenodd" clip-rule="evenodd" d="M703.486 336C696.017 340.574 687.384 342.251 679.347 337.284C666.231 363.146 662.962 394.002 666.117 428.106C685.243 435.678 701.317 434.189 715.001 425.535L703.486 336Z" fill="#FFE4F4"/>
<g id="RLeg_2">
<path id="Path_101" fill-rule="evenodd" clip-rule="evenodd" d="M610.417 511.84C610.417 511.84 610.575 524.311 600.299 528.974C590.03 533.635 582.713 533.355 583.645 536.959C584.576 540.563 611.306 540.418 613.802 537.599C615.93 535.201 620.556 512.872 621.83 514.579L610.417 511.84Z" fill="url(#paint13_linear)"/>
<path id="Path_102" fill-rule="evenodd" clip-rule="evenodd" d="M617.881 529.452C616.306 528.319 614.982 534.853 610.704 533.036C606.427 531.219 609.8 525.213 607.108 524.105C604.416 522.998 599.218 528.953 592.314 530.401C585.41 531.848 579.804 533.114 578.211 535.801C576.839 538.111 578.211 538.849 578.211 538.849C578.211 538.849 584.858 542.168 588.988 542.899C594.987 543.96 612.327 544.667 614.227 542.732C615.393 541.545 618.668 530.019 617.881 529.452Z" fill="#EEDFE8"/>
<path id="Path_103" fill-rule="evenodd" clip-rule="evenodd" d="M577.837 536.073C576.535 538.196 578.589 539.3 578.835 539.422L579.825 539.844C581.706 540.626 585.948 542.302 589.082 542.901C594.831 544 612.63 544.651 614.545 542.762C614.881 542.43 615.297 541.217 615.699 539.641L614.478 539.774C608.6 540.397 595.479 541.524 589.004 539.998C583.256 538.644 580.11 536.417 578.675 535.117C578.326 535.416 578.044 535.734 577.837 536.073Z" fill="#EC7AA5"/>
<path id="Path_104" fill-rule="evenodd" clip-rule="evenodd" d="M717.104 414.177C717.104 414.177 730.369 442.192 711.727 451.812C693.698 461.115 639.726 450.112 639.726 450.112C639.726 450.112 640.69 457.877 639.726 464.802C637.207 482.889 625.228 513.023 622.693 516.809C619.188 522.046 608.511 518.097 608.31 513.737C608.109 509.377 616.359 453.693 617.613 443.075C618.861 432.456 622.802 430.913 634.311 428.01C636.955 427.343 668.221 419.573 671.086 419.8C695.697 421.746 717.104 414.177 717.104 414.177Z" fill="#524D87"/>
<path id="Path_105" fill-rule="evenodd" clip-rule="evenodd" d="M702.562 448.921C684.712 450.921 637.458 446.798 635.56 448.671C633.748 450.46 634.05 481.575 629.986 499.585L630.604 497.884C634.426 487.267 638.396 474.354 639.726 464.802C640.69 457.877 639.726 450.112 639.726 450.112L641.902 450.533C652.162 452.46 695.861 459.999 711.727 451.812C720.323 447.376 723.831 440.006 722.25 429.703C719.529 441.349 712.966 447.755 702.562 448.921Z" fill="white" fill-opacity="0.056108"/>
</g>
<path id="Path_106" fill-rule="evenodd" clip-rule="evenodd" d="M703.159 336.021C690.79 376.538 683.373 433.979 722.001 423.986C701.482 386.206 729.377 369.202 723.054 349.676C720.892 343 703.32 335.497 703.159 336.021Z" fill="#EA5455"/>
<path id="Path_107" fill-rule="evenodd" clip-rule="evenodd" d="M717.109 352.846C703.13 354.955 714.654 379.362 710.039 383.039C705.425 386.716 697.393 387.113 696.527 389.359C694.787 393.874 703.201 405.271 721.769 423.551L722.002 423.986C704.127 391.076 722.99 373.931 723.971 357.151C721.9 353.903 719.612 352.468 717.109 352.846Z" fill="black" fill-opacity="0.159856"/>
<path id="Path_108" fill-rule="evenodd" clip-rule="evenodd" d="M680.001 337C675.282 348.838 673.013 358.127 670.896 375.504C669.131 389.976 670.014 419.84 670.014 419.84L664.181 420.987C664.181 420.987 660.012 374.848 661.406 368.907C663.745 358.938 665.33 353.114 668.419 344C670.121 338.998 680.001 337 680.001 337Z" fill="#EA5455"/>
</g>
<g id="RArm_3">
<path id="Path_109" fill-rule="evenodd" clip-rule="evenodd" d="M700.561 382.017C700.561 382.017 692.946 374.392 690.308 373.507C687.671 372.622 673.224 371.559 673.322 373.559C673.433 375.701 682.729 375.578 683.589 376.632C684.448 377.685 685.644 385.888 688.893 386.697C692.136 387.506 698.859 389.9 698.859 389.9L728.783 405.362L725.595 389.901L700.561 382.017Z" fill="url(#paint14_linear)"/>
<path id="Path_110" fill-rule="evenodd" clip-rule="evenodd" d="M723.482 349.731C732.559 362.542 740.309 382.056 743.284 389.664C746.258 397.272 743.258 408.747 730.177 406.494C728.62 406.226 726.086 405.24 726.086 405.24C721.277 398.647 720.433 392.987 722.228 387.947C722.228 387.947 723.92 388.661 723.92 388.661C723.92 388.661 710.919 365.617 707.744 359.439C702.441 349.122 715.487 338.444 723.482 349.731Z" fill="#EA5455"/>
<path id="Path_111" fill-rule="evenodd" clip-rule="evenodd" d="M723.92 388.661C723.92 388.661 730.523 391.887 729.693 390.468C728.862 389.049 721.404 384.182 721.404 384.182L723.92 388.661Z" fill="black" fill-opacity="0.159856"/>
</g>
</g>
<g id="Example Ipad1">
<g id="Group 3_2">
<path id="Rectangle_28" fill-rule="evenodd" clip-rule="evenodd" d="M585.969 346.044C585.64 344.724 586.443 343.387 587.764 343.058L611.233 337.206C612.554 336.877 613.891 337.68 614.22 339.001L622.742 373.181C623.071 374.501 622.268 375.838 620.947 376.168L597.478 382.019C596.158 382.348 594.82 381.545 594.491 380.225L585.969 346.044Z" fill="url(#paint15_linear)"/>
<path id="Rectangle_29" fill-rule="evenodd" clip-rule="evenodd" d="M586.885 346.595C586.555 345.275 587.359 343.938 588.679 343.608L612.149 337.757C613.469 337.428 614.806 338.231 615.136 339.552L623.658 373.732C623.987 375.052 623.183 376.389 621.863 376.718L598.394 382.57C597.073 382.899 595.736 382.096 595.407 380.775L586.885 346.595Z" fill="#518DF8"/>
<path id="Rectangle_30" d="M587.886 346.896C587.589 345.708 588.312 344.504 589.501 344.208L611.573 338.705C612.761 338.408 613.965 339.131 614.261 340.32L621.966 371.223C622.262 372.411 621.539 373.615 620.351 373.911L598.279 379.414C597.09 379.71 595.887 378.987 595.591 377.799L587.886 346.896Z" fill="#07152A"/>
</g>
</g>
<g id="Group 26_10">
<g id="Group 25">
<path id="Rectangle_31" fill-rule="evenodd" clip-rule="evenodd" d="M383.206 395.871H394.623V540.751H383.206L383.206 395.871Z" fill="#E9E9E9"/>
<path id="Rectangle_32" fill-rule="evenodd" clip-rule="evenodd" d="M271.377 400.634L361.566 400.634V427.542H286.405V540.751H271.377V400.634Z" fill="#D3D3D3"/>
<path id="Rectangle_33" fill-rule="evenodd" clip-rule="evenodd" d="M270.794 400.634H278.794V540.751H270.794V400.634Z" fill="#DBDBDB"/>
</g>
<g id="Group 25_2">
<path id="Rectangle_34" fill-rule="evenodd" clip-rule="evenodd" d="M663.432 400.634H679.432V540.751H663.432V400.634Z" fill="#E9E9E9"/>
<path id="Rectangle_35" fill-rule="evenodd" clip-rule="evenodd" d="M663.432 395.871H673.432V540.751H663.432L663.432 395.871Z" fill="#DBDBDB"/>
<path id="Rectangle_36" fill-rule="evenodd" clip-rule="evenodd" d="M531.008 400.634L670.008 400.634V427.19H549.716V540.751H531.008V400.634Z" fill="#D3D3D3"/>
<path id="Rectangle_37" fill-rule="evenodd" clip-rule="evenodd" d="M282.592 395.871L531.481 395.871V436.101H282.592V395.871Z" fill="#DBDBDB"/>
<path id="Rectangle_38" fill-rule="evenodd" clip-rule="evenodd" d="M525.773 400.634H537.19V436.101H525.773V400.634Z" fill="#E9E9E9"/>
<path id="Rectangle_39" fill-rule="evenodd" clip-rule="evenodd" d="M531.044 400.634H540.044V540.751H531.044V400.634Z" fill="#DBDBDB"/>
<path id="Rectangle_40" fill-rule="evenodd" clip-rule="evenodd" d="M532.478 403.015C532.478 399.07 535.676 395.871 539.621 395.871L684.747 395.871C688.692 395.871 691.891 399.07 691.891 403.015V403.015C691.891 406.96 688.692 410.158 684.747 410.158H539.621C535.676 410.158 532.478 406.96 532.478 403.015V403.015Z" fill="#E9E9E9"/>
<path id="Rectangle_41" fill-rule="evenodd" clip-rule="evenodd" d="M279.737 398.729H528.627V413.016H279.737V398.729Z" fill="#E9E9E9"/>
<path id="Rectangle_42" fill-rule="evenodd" clip-rule="evenodd" d="M258.807 403.015C258.807 399.07 262.005 395.871 265.95 395.871H542.414C546.36 395.871 549.558 399.07 549.558 403.015V403.015C549.558 406.96 546.36 410.158 542.414 410.158H265.95C262.005 410.158 258.807 406.96 258.807 403.015V403.015Z" fill="#DBDBDB"/>
</g>
</g>
<g id="Men2.8">
<g id="RLeg_3">
<path id="Path_112" fill-rule="evenodd" clip-rule="evenodd" d="M303.389 505.181L295.491 530.824L312.058 531.425C312.058 531.425 310.187 522.653 312.858 514.43C315.001 507.829 316.749 504.535 316.749 504.535L303.389 505.181Z" fill="#92691F"/>
<path id="Path_113" fill-rule="evenodd" clip-rule="evenodd" d="M311.625 524.377C311.625 524.377 317.948 530.238 324.029 532.409C330.11 534.58 332.437 534.604 332.871 535.421L332.95 535.576C334.2 538.159 333.442 541.589 319.581 541.779C316.212 541.825 312.709 539.868 303.411 537.797L302.739 541.417C297.535 541.348 294.499 540.528 293.63 538.956C292.32 536.605 294.546 525.01 296.082 524.791C297.617 524.571 297.921 529.286 302.043 529.39C306.173 529.493 311.625 524.377 311.625 524.377Z" fill="#391B0B"/>
<path id="Combined Shape_3" fill-rule="evenodd" clip-rule="evenodd" d="M323.882 532.356C323.694 532.519 323.468 532.691 323.202 532.854C322.277 533.421 320.885 533.872 319.012 533.444C318.061 533.227 317 532.618 315.959 531.852C314.912 531.082 313.862 530.137 312.929 529.221C311.996 528.305 311.177 527.416 310.591 526.755C310.298 526.425 310.063 526.152 309.901 525.961C309.876 525.931 309.852 525.903 309.83 525.877C309.968 525.771 310.099 525.668 310.224 525.568C310.242 525.59 310.262 525.613 310.283 525.638C310.442 525.826 310.675 526.096 310.965 526.423C311.546 527.078 312.357 527.959 313.28 528.865C314.203 529.771 315.234 530.699 316.255 531.449C317.281 532.204 318.274 532.763 319.124 532.957C320.854 533.352 322.114 532.935 322.94 532.428C323.088 532.337 323.223 532.243 323.344 532.15C323.523 532.222 323.703 532.291 323.882 532.356Z" fill="#81411E"/>
<path id="Path_114" fill-rule="evenodd" clip-rule="evenodd" d="M265.632 424.913C265.632 424.913 331.425 430.174 340.49 430.455C349.555 430.735 356.481 443.674 349.461 455.617C341.577 469.024 320.156 507.621 315.968 516.545C312.426 524.09 296.328 520.998 299.225 509.473C302.683 495.679 309.129 464.733 322.898 452.558C322.898 452.558 289.411 464.699 270.549 452.924C259.788 446.206 265.632 424.913 265.632 424.913Z" fill="#7A3636"/>
<path id="Path_115" fill-rule="evenodd" clip-rule="evenodd" d="M349.461 455.617L348.435 457.376C344.445 464.271 338.002 475.923 331.851 487.27L332.174 486.23C336.932 471.092 344.323 453.258 347.483 447.817C348.591 445.909 350.099 443.966 352.007 441.985C352.817 446.139 352.202 450.954 349.461 455.617Z" fill="white" fill-opacity="0.192499"/>
</g>
<g id="LLeg_4">
<path id="Path_116" fill-rule="evenodd" clip-rule="evenodd" d="M374.988 505.479C374.988 505.479 379.386 525.038 385.111 527.131C387.315 527.937 368.219 530.238 368.219 530.238L363.425 511.474L374.988 505.479Z" fill="#92691F"/>
<path id="Path_117" fill-rule="evenodd" clip-rule="evenodd" d="M365.461 523.631L365.142 540.142L371.724 540.191L371.791 536.48C371.791 536.48 376.921 539.556 380.395 540.638C385.067 542.097 403.526 541.333 405.611 539.11C407.697 536.877 407.742 533.324 403.46 532.887C399.179 532.45 392.099 531.15 389.051 528.818C385.364 526.007 383.961 521.547 382.89 521.543C381.25 521.537 381.124 526.784 372.804 526.858C369.638 526.886 365.461 523.631 365.461 523.631Z" fill="#391B0B"/>
<path id="Path_118" fill-rule="evenodd" clip-rule="evenodd" d="M381.187 523.015C381.187 523.015 385.432 529.639 387.955 530.598C390.479 531.547 392.513 530.482 392.513 530.482C392.513 530.482 388.161 528.748 386.48 525.722C382.673 518.867 381.911 522.354 381.187 523.015Z" fill="#81411E"/>
<path id="Path_119" fill-rule="evenodd" clip-rule="evenodd" d="M271.076 430.227C271.076 430.227 270.984 451.248 285.107 456.532C299.231 461.815 345.221 459.827 345.221 459.827C345.221 459.827 359.815 513.525 363.312 518.755C366.809 523.985 383.391 524.527 382.494 512.481C381.591 500.435 375.12 455.713 373.868 445.107C372.623 434.5 368.691 431.96 357.209 430.06C353.173 429.392 354.886 428.322 328.942 427.107C323.37 426.846 314.021 428.932 305.429 429.877C296.838 430.822 271.076 430.227 271.076 430.227Z" fill="#7A3636"/>
<path id="Path_120" fill-rule="evenodd" clip-rule="evenodd" d="M316.979 430.681L316.979 428.24L318.129 428.068C322.311 427.447 326.113 426.974 328.942 427.107L331.925 427.252C354.758 428.407 353.335 429.418 357.209 430.06L357.955 430.186C368.618 432.033 372.476 434.614 373.782 444.419L374.147 447.37C375.876 460.962 381.645 501.158 382.495 512.481C382.562 513.387 382.531 514.222 382.413 514.989L379.052 498.062C374.098 472.966 371.322 458.096 370.724 453.452L370.599 452.487C369.48 444.244 366.552 434.016 357.103 434.683L356.287 434.751C349.634 435.258 337.018 433.982 318.438 430.923L316.979 430.681Z" fill="white" fill-opacity="0.192499"/>
<ellipse id="Oval_10" cx="384.321" cy="446.912" rx="3.77561" ry="6.61391" transform="rotate(13 384.321 446.912)" fill="white" fill-opacity="0.192499"/>
</g>
<g id="RArm_4">
<path id="Path_121" fill-rule="evenodd" clip-rule="evenodd" d="M281.263 402.315C281.263 402.315 296.654 405.878 296.498 407.277C296.345 408.682 289.569 408.898 289.569 408.898C289.569 408.898 302.095 416.987 301.098 418.565C300.101 420.143 291.934 421.921 288.545 420.648C285.154 419.375 276.367 410.113 276.367 410.113L281.263 402.315Z" fill="url(#paint16_linear)"/>
<path id="Path_122" fill-rule="evenodd" clip-rule="evenodd" d="M281.403 356.716C276.248 363.078 258.67 382.513 258.67 382.513C258.67 382.513 276.248 395.033 280.674 397.681C287.932 402.021 280.551 413.536 275.228 412.258C268.015 410.52 249.807 397.959 241.251 392.875C232.696 387.792 235.969 379.584 242.299 372.095C247.162 366.343 257.732 354.557 265.169 344.211C272.569 333.917 291.407 344.37 281.403 356.716Z" fill="#EA5455"/>
<path id="Path 15" fill-rule="evenodd" clip-rule="evenodd" d="M258.67 382.513C258.67 382.513 253.721 387.281 254.235 387.65C254.75 388.019 260.713 383.979 260.713 383.979L258.67 382.513Z" fill="black" fill-opacity="0.159856"/>
</g>
<g id="Head_4">
<path id="Path_123" fill-rule="evenodd" clip-rule="evenodd" d="M312.096 310.007C316.419 310.48 316.112 318.089 310.85 318.486C309.774 325.821 305.938 329.315 301.262 329.719L301.521 340.813L280.836 340.801C280.836 340.801 286.661 332.964 286.371 322.235C286.08 311.506 286.565 301.427 286.565 301.427L313.358 301.908L312.096 310.007Z" fill="url(#paint17_linear)"/>
<path id="Path_124" fill-rule="evenodd" clip-rule="evenodd" d="M303.634 289.313C319.571 293.336 312.996 310.328 312.996 310.328C308.181 309.671 303.547 315.514 301.79 321.244C296.709 326.467 290.128 326.458 285.751 323.416C285.751 323.416 279.731 304.793 281.7 298.592C283.67 292.391 289.108 285.647 303.634 289.313Z" fill="#2C272E"/>
</g>
<g id="Body_4">
<path id="Path_125" fill-rule="evenodd" clip-rule="evenodd" d="M265.958 343.288C264.527 345.724 263.502 355.536 265.958 394.408C267.23 414.537 261.82 434.376 263.218 443.109C264.616 451.843 274.224 452.886 274.224 452.886L279.827 434.657L282.463 452.886C282.463 452.886 322.197 449.171 325.679 440.125C329.168 431.06 324.786 409.75 323.744 389.683C322.698 369.537 323.483 348.858 321.557 345.724C317.714 339.468 307.822 336.546 301.683 335.61C293.892 334.422 283.834 334.377 277.855 336.273C271.876 338.168 267.389 340.852 265.958 343.288Z" fill="#EA5455"/>
<path id="Path_126" fill-rule="evenodd" clip-rule="evenodd" d="M306.387 357.131C309.523 380.265 313.716 396.498 318.966 405.83C321.137 409.688 323.342 411.279 325.582 410.602L325.05 405.475C324.52 400.287 324.017 394.942 323.744 389.683C323.553 386.016 323.424 382.331 323.327 378.737L306.387 357.131Z" fill="black" fill-opacity="0.159856"/>
<path id="Path_127" fill-rule="evenodd" clip-rule="evenodd" d="M277.855 336.273C277.493 336.388 277.142 336.507 276.803 336.631C285.388 340.374 299.563 339.874 307.269 336.825C305.261 336.258 303.336 335.862 301.683 335.61C293.892 334.422 283.835 334.377 277.855 336.273Z" fill="#E5AA41"/>
</g>
<g id="LArm_4">
<path id="Path_128" fill-rule="evenodd" clip-rule="evenodd" d="M383.155 377.168C383.155 377.168 395.94 368.633 398.199 366.919C400.451 365.212 403.278 352.268 401.526 350.452C400.68 349.573 394.284 355.486 393.143 356.278C392.009 357.062 386.21 360.556 386.21 360.556C386.21 360.556 387.851 350.648 386.438 349.849C385.393 349.268 383.302 351.818 383.023 354.513C382.743 357.207 379.836 360.723 379.46 364.812C379.291 366.599 377.532 370.013 377.532 370.013L383.155 377.168Z" fill="url(#paint18_linear)"/>
<path id="Path_129" fill-rule="evenodd" clip-rule="evenodd" d="M307.015 360.801C311.914 370.98 320.234 385.863 324.804 394.589C330.212 404.915 336.656 409.29 349.653 401.628C360.538 395.211 376.234 384.89 384.344 379.281C391.891 374.061 382.97 361.175 375.84 365.529C366.381 371.297 342.194 382.728 342.194 382.728C342.194 382.728 329.747 359.991 324.579 349.075C318.005 335.201 297.534 341.101 307.015 360.801Z" fill="#EA5455"/>
<path id="Path_130" fill-rule="evenodd" clip-rule="evenodd" d="M342.194 382.728C342.194 382.728 344.47 390.744 345.007 390.427C345.544 390.111 344.63 381.579 344.63 381.579L342.194 382.728Z" fill="black" fill-opacity="0.159856"/>
</g>
</g>
<g id="Chair8">
<path id="Path_131" fill-rule="evenodd" clip-rule="evenodd" d="M291.769 461.221L280.326 542.179L286.326 542.1L297.769 462.067L291.769 461.221Z" fill="#EFB5EA"/>
<path id="Path_132" fill-rule="evenodd" clip-rule="evenodd" d="M329.931 461.221L341.374 542.179L335.375 542.1L323.932 462.067L329.931 461.221Z" fill="#EFB5EA"/>
<path id="Path_133" fill-rule="evenodd" clip-rule="evenodd" d="M256.884 461.221L245.441 542.179L251.441 542.1L262.884 462.067L256.884 461.221Z" fill="#EFB5EA"/>
<path id="Path_134" fill-rule="evenodd" clip-rule="evenodd" d="M334.308 465.983C339.524 465.983 343.753 461.754 343.753 456.538V456.538C343.753 451.321 339.524 447.093 334.308 447.093H296.545C290.824 447.093 286.042 442.739 285.506 437.043L279.468 372.85C278.932 367.153 274.15 362.8 268.429 362.8H244.729C238.27 362.8 233.179 368.298 233.673 374.738L239.898 455.744C240.342 461.522 245.159 465.983 250.953 465.983H334.308Z" fill="#EFB5EA"/>
<path id="Combined Shape_4" fill-rule="evenodd" clip-rule="evenodd" d="M343.751 456.457C343.699 456.458 343.647 456.458 343.595 456.458H291.612C285.819 456.458 281.002 451.998 280.557 446.222L274.249 364.363C277.193 366.121 279.267 369.21 279.61 372.847L285.643 436.806C286.181 442.501 290.962 446.853 296.682 446.853H334.332C339.535 446.853 343.753 451.071 343.753 456.274C343.753 456.335 343.752 456.396 343.751 456.457Z" fill="#A46AE9"/>
</g>
<g id="Front Laptop3">
<path id="Rectangle_43" fill-rule="evenodd" clip-rule="evenodd" d="M557.983 394.543C557.983 394.13 557.649 393.796 557.236 393.796H473.1C472.688 393.796 472.354 394.13 472.354 394.543V395.639C472.354 396.052 472.688 396.386 473.1 396.386H557.236C557.649 396.386 557.983 396.052 557.983 395.639V394.543Z" fill="url(#paint19_linear)"/>
<path id="Rectangle_44" fill-rule="evenodd" clip-rule="evenodd" d="M557.991 394.543C557.991 394.13 557.657 393.796 557.244 393.796H524.917C524.505 393.796 524.171 394.13 524.171 394.543V395.639C524.171 396.052 524.505 396.386 524.917 396.386H557.244C557.657 396.386 557.991 396.052 557.991 395.639V394.543Z" fill="#518DF8"/>
<path id="Rectangle_45" fill-rule="evenodd" clip-rule="evenodd" d="M564.094 358.353C564.37 356.201 562.693 354.296 560.523 354.296H504.712C502.901 354.296 501.371 355.642 501.141 357.439L496.99 389.852C496.715 392.004 498.391 393.909 500.561 393.909H556.372C558.184 393.909 559.713 392.563 559.943 390.766L564.094 358.353Z" fill="#518DF8"/>
<path id="Rectangle_46" fill-rule="evenodd" clip-rule="evenodd" d="M562.395 358.353C562.671 356.201 560.994 354.296 558.825 354.296H504.193C502.382 354.296 500.852 355.642 500.622 357.439L496.471 389.852C496.196 392.004 497.872 393.909 500.042 393.909H554.674C556.485 393.909 558.014 392.563 558.245 390.766L562.395 358.353Z" fill="url(#paint20_linear)"/>
<path id="Rectangle_47" d="M560.447 359.821C560.694 357.884 559.185 356.17 557.233 356.17H505.474C503.844 356.17 502.467 357.381 502.26 358.999L498.52 388.236C498.272 390.173 499.781 391.887 501.734 391.887H553.493C555.123 391.887 556.499 390.675 556.706 389.058L560.447 359.821Z" fill="#07152A"/>
</g>
<g id="Wom3.8">
<g id="RArm_5">
<path id="Path_135" fill-rule="evenodd" clip-rule="evenodd" d="M423.646 404.22C423.646 404.22 437.247 407.393 437.109 408.638C436.974 409.89 430.986 410.082 430.986 410.082C430.986 410.082 442.055 417.285 441.174 418.69C440.293 420.095 433.076 421.678 430.08 420.545C427.084 419.412 419.319 411.164 419.319 411.164L397.532 399.463L404.814 389.859L423.646 404.22Z" fill="#D9177B"/>
<path id="Path_136" fill-rule="evenodd" clip-rule="evenodd" d="M423.769 363.617C419.213 369.282 403.68 386.588 403.68 386.588C403.68 386.588 406.746 388.889 406.746 388.889L396.774 400.985C396.774 400.985 390.406 397.083 388.287 395.815C380.726 391.288 383.619 383.98 389.213 377.311C393.51 372.189 402.851 361.695 409.423 352.482C415.963 343.316 432.61 352.624 423.769 363.617Z" fill="#D9177B"/>
<path id="Path 15_2" fill-rule="evenodd" clip-rule="evenodd" d="M403.68 386.588C403.68 386.588 399.306 390.833 399.761 391.162C400.216 391.491 405.485 387.893 405.485 387.893L403.68 386.588Z" fill="#D9177B"/>
<path id="Path 76" fill-rule="evenodd" clip-rule="evenodd" d="M406.128 387.623L393.13 400.491L399.629 404.744L408.558 389.459L406.128 387.623Z" fill="#D9177B"/>
</g>
<g id="LLeg_5">
<path id="Path_137" fill-rule="evenodd" clip-rule="evenodd" d="M447.636 503.233L440.605 525.882L452.423 526.413C452.423 526.413 450.757 518.665 453.135 511.403C455.042 505.572 456.599 502.663 456.599 502.663L447.636 503.233Z" fill="url(#paint21_linear)"/>
<path id="Path_138" fill-rule="evenodd" clip-rule="evenodd" d="M452.519 519.78C452.519 519.78 452.272 525.546 454.286 527.369C456.299 529.19 466.979 535.917 467.874 537.272C468.769 538.628 467.456 540.283 467.456 540.283C467.456 540.283 456.552 541.993 451.408 539.354C447.695 537.448 445.041 535.891 445.041 535.891L443.902 538.82L437.948 537.965C437.948 537.965 436.113 533.316 436.901 531.004C437.69 528.692 441.759 517.889 441.759 517.889C441.759 517.889 452.519 519.78 452.519 519.78Z" fill="#391B0B"/>
<path id="Path_139" fill-rule="evenodd" clip-rule="evenodd" d="M413.249 426.031C422.138 426.898 465.922 437.326 474.937 439.178C483.952 441.03 491.574 451.051 484.699 462.654C476.978 475.679 455.151 516.158 455.151 516.158C455.016 516.191 454.884 516.249 454.748 516.249C450.308 516.249 446.35 515.641 442.539 512.985C442.539 512.985 448.33 470.54 461.813 458.712C461.813 458.712 426.995 471.231 409.583 457.571C399.311 449.513 403.453 425.075 413.249 426.031Z" fill="#33373E"/>
<path id="Combined Shape_5" fill-rule="evenodd" clip-rule="evenodd" d="M481.575 442.255L479.184 472.278C479.381 471.928 479.575 471.582 479.768 471.24L482.046 442.636C481.891 442.506 481.734 442.379 481.575 442.255Z" fill="white" fill-opacity="0.192499"/>
</g>
<g id="RLeg_4">
<path id="Path_140" fill-rule="evenodd" clip-rule="evenodd" d="M513.097 501.444C513.097 501.444 516.974 518.714 522.019 520.562C523.962 521.273 510.033 523.305 510.033 523.305L505.808 506.737L513.097 501.444Z" fill="url(#paint22_linear)"/>
<path id="Path_141" fill-rule="evenodd" clip-rule="evenodd" d="M508.258 518.544L511.937 540.165L518.313 539.157L517.525 533.811C517.525 533.811 520.322 538.468 523.441 538.267C526.569 538.065 542.211 535.707 542.211 535.707C542.211 535.707 542.563 530.529 535.367 529.346C529.383 528.363 519.178 516.809 519.178 516.809L508.258 518.544Z" fill="#391B0B"/>
<path id="Path_142" fill-rule="evenodd" clip-rule="evenodd" d="M420.707 423.171C420.707 423.171 407.875 450.35 425.908 459.682C443.347 468.707 489.751 457.063 489.751 457.063C489.751 457.063 488.818 464.596 489.751 471.314C492.187 488.861 504.169 510.449 505.259 514.007C505.808 515.798 519.172 513.151 519.172 511.026C519.172 508.901 512.354 460.537 511.14 450.236C509.933 439.934 506.121 438.438 494.989 435.622C492.431 434.975 459.285 427.436 456.514 427.656C432.708 429.544 420.707 423.171 420.707 423.171Z" fill="#42474F"/>
<path id="Path_143" fill-rule="evenodd" clip-rule="evenodd" d="M456.514 427.656C459.285 427.436 492.431 434.975 494.989 435.621L496.816 436.091C506.312 438.575 509.831 440.428 511.054 449.547L511.383 452.165C512.385 459.804 515.093 477.769 517.236 492.725C514.818 487.228 512.817 481.129 511.233 474.427C507.541 458.807 508.331 445.982 507.34 443.736C506.348 441.49 457.86 434.32 449.529 432.84C445.902 432.196 443.857 430.599 443.392 428.048C447.418 428.161 451.792 428.031 456.514 427.656Z" fill="white" fill-opacity="0.192499"/>
</g>
<g id="Head_5">
<path id="Path_144" fill-rule="evenodd" clip-rule="evenodd" d="M450.204 318.877C454.056 319.299 453.783 326.08 449.094 326.434C448.136 332.97 444.718 336.084 440.551 336.444L440.782 346.331L422.349 346.32C422.349 346.32 427.54 339.336 427.281 329.775C427.022 320.213 427.455 311.231 427.455 311.231L451.329 311.66L450.204 318.877Z" fill="url(#paint23_linear)"/>
<path id="Path_145" fill-rule="evenodd" clip-rule="evenodd" d="M451.043 319.385C446.556 317.609 443.242 325.257 439.809 330.573C436.376 335.888 427.483 334.985 426.257 330.573C421.616 320.908 417.617 307.769 423.032 306.691C423.795 292.723 460.309 296.021 451.043 319.385Z" fill="#9E5229"/>
<path id="Combined Shape_6" fill-rule="evenodd" clip-rule="evenodd" d="M426.019 301.156H433.932H434.043L434.118 301.239C441.147 309.095 442.721 320.664 439.436 331.099C439.182 331.427 438.906 331.727 438.61 332.001C442.289 321.471 440.88 309.618 433.819 301.656H425.431C425.618 301.483 425.814 301.316 426.019 301.156Z" fill="black" fill-opacity="0.199355"/>
<ellipse id="Oval_11" rx="4.4008" ry="4.40615" transform="matrix(-1 0 0 1 430.869 301.406)" fill="#FB9934"/>
</g>
<g id="Body_5">
<path id="Path_146" fill-rule="evenodd" clip-rule="evenodd" d="M454.711 348.001C458.791 353.987 465.592 374.303 465.978 378.873C466.412 384.145 460.752 392.544 460.659 400.176C460.576 407.809 464.881 426.915 463.588 429.062C462.304 431.209 419.691 443.621 417.291 442.601C414.89 441.581 406.603 430.581 408.497 426.11C410.401 421.64 418.267 411.499 417.366 405.408C416.477 399.318 411.309 376.836 408.743 369.184C406.187 361.532 407.039 353.499 411.809 350.206C414.17 348.577 420.468 343.948 431.684 343.97C442.9 343.991 454.394 347.537 454.711 348.001Z" fill="#EC1383"/>
<path id="Path_147" fill-rule="evenodd" clip-rule="evenodd" d="M463.859 373.966L444.304 359.916L444.31 362.483C444.382 378.33 445.38 386.725 461.977 412.695L461.593 410.048C461.052 406.206 460.633 402.608 460.659 400.176C460.718 395.361 462.993 390.241 464.555 385.793L463.859 373.966Z" fill="#EC1383"/>
<path id="Path 68" fill-rule="evenodd" clip-rule="evenodd" d="M442.047 343.532C442.047 343.532 442.519 346.106 440.453 346.106C438.386 346.106 424.526 346.562 422.649 345.748C420.772 344.934 421.336 343.532 421.336 343.532H442.047Z" fill="#EC1383"/>
</g>
<g id="LArm_5">
<path id="Path_148" fill-rule="evenodd" clip-rule="evenodd" d="M511.126 378.86C511.126 378.86 522.412 371.328 524.407 369.815C526.395 368.309 528.89 356.885 527.344 355.283C526.597 354.507 520.95 359.725 519.943 360.424C518.943 361.116 513.822 364.2 513.822 364.2C513.822 364.2 515.271 355.456 514.024 354.751C513.101 354.238 511.256 356.488 511.009 358.866C510.762 361.244 508.196 364.347 507.864 367.956C507.715 369.533 507.131 371.576 507.131 371.576L475.815 385.025L479.092 399.648L511.126 378.86Z" fill="url(#paint24_linear)"/>
<path id="Path_149" fill-rule="evenodd" clip-rule="evenodd" d="M443.909 364.416C448.233 373.4 455.579 386.534 459.613 394.235C464.387 403.349 470.076 407.21 481.55 400.448C482.893 399.656 485.798 397.892 485.798 397.892L478.694 382.12C478.694 382.12 474.966 383.768 474.966 383.768C474.966 383.768 463.977 363.701 459.415 354.067C453.61 341.822 435.539 347.03 443.909 364.416Z" fill="#D9177B"/>
<path id="Path_150" fill-rule="evenodd" clip-rule="evenodd" d="M474.965 383.768C474.965 383.768 476.974 390.842 477.449 390.563C477.923 390.283 477.116 382.753 477.116 382.753L474.965 383.768Z" fill="black" fill-opacity="0.159856"/>
<path id="Path 75" fill-rule="evenodd" clip-rule="evenodd" d="M478.593 381.423L483.541 401.058L490.902 397.078L481.242 379.894L478.593 381.423Z" fill="#EC1383"/>
</g>
<path id="Path_151" fill-rule="evenodd" clip-rule="evenodd" d="M431.341 298.15C431.341 298.15 427.193 292.84 422.402 294.233C417.612 295.626 413.279 304.165 415.336 312.191C417.383 320.219 415.695 324.797 413.212 330.207C406.54 344.76 429.638 354 429.638 354C429.638 354 427.836 343.217 431.341 336.705C434.952 329.999 437.002 321.399 437.002 316.137C437.002 306.986 431.341 298.15 431.341 298.15Z" fill="#9E5229"/>
</g>
<g id="Chair8_2">
<path id="Path_152" fill-rule="evenodd" clip-rule="evenodd" d="M430.659 461.221L442.102 542.179L436.102 542.1L424.659 462.067L430.659 461.221Z" fill="#EFB5EA"/>
<path id="Path_153" fill-rule="evenodd" clip-rule="evenodd" d="M463.957 461.221L475.4 542.179L469.401 542.1L457.958 462.067L463.957 461.221Z" fill="#EFB5EA"/>
<path id="Path_154" fill-rule="evenodd" clip-rule="evenodd" d="M390.911 461.221L379.468 542.179L385.467 542.1L396.91 462.067L390.911 461.221Z" fill="#EFB5EA"/>
<path id="Path_155" fill-rule="evenodd" clip-rule="evenodd" d="M468.334 465.983C473.551 465.983 477.779 461.754 477.779 456.538V456.538C477.779 451.321 473.551 447.093 468.334 447.093H430.572C424.85 447.093 420.068 442.739 419.532 437.043L413.495 372.85C412.959 367.153 408.177 362.8 402.455 362.8H378.755C372.297 362.8 367.205 368.298 367.7 374.738L373.924 455.744C374.368 461.522 379.185 465.983 384.98 465.983H468.334Z" fill="#EFB5EA"/>
<path id="Combined Shape_7" fill-rule="evenodd" clip-rule="evenodd" d="M477.778 456.457C477.726 456.458 477.674 456.458 477.621 456.458H425.638C419.845 456.458 415.028 451.998 414.583 446.222L408.276 364.363C411.22 366.121 413.294 369.21 413.637 372.847L419.67 436.806C420.207 442.501 424.988 446.853 430.709 446.853H468.359C473.562 446.853 477.779 451.071 477.779 456.274C477.779 456.335 477.779 456.396 477.778 456.457Z" fill="#A46AE9"/>
</g>
</g>
</g>
<defs>
<filter id="filter0_d" x="74.8574" y="89.0082" width="165.801" height="81.4275" filterUnits="userSpaceOnUse" color-interpolation-filters="sRGB">
<feFlood flood-opacity="0" result="BackgroundImageFix"/>
<feColorMatrix in="SourceAlpha" type="matrix" values="0 0 0 0 0 0 0 0 0 0 0 0 0 0 0 0 0 0 127 0"/>
<feOffset dy="2"/>
<feGaussianBlur stdDeviation="7.5"/>
<feColorMatrix type="matrix" values="0 0 0 0 0.503982 0 0 0 0 0.700178 0 0 0 0 1 0 0 0 0.233829 0"/>
<feBlend mode="normal" in2="BackgroundImageFix" result="effect1_dropShadow"/>
<feBlend mode="normal" in="SourceGraphic" in2="effect1_dropShadow" result="shape"/>
</filter>
<filter id="filter1_d" x="74.8574" y="147.592" width="198.949" height="172.68" filterUnits="userSpaceOnUse" color-interpolation-filters="sRGB">
<feFlood flood-opacity="0" result="BackgroundImageFix"/>
<feColorMatrix in="SourceAlpha" type="matrix" values="0 0 0 0 0 0 0 0 0 0 0 0 0 0 0 0 0 0 127 0"/>
<feOffset dy="2"/>
<feGaussianBlur stdDeviation="7.5"/>
<feColorMatrix type="matrix" values="0 0 0 0 0.503982 0 0 0 0 0.700178 0 0 0 0 1 0 0 0 0.233829 0"/>
<feBlend mode="normal" in2="BackgroundImageFix" result="effect1_dropShadow"/>
<feBlend mode="normal" in="SourceGraphic" in2="effect1_dropShadow" result="shape"/>
</filter>
<filter id="filter2_d" x="95.5068" y="202.89" width="161.424" height="97.3127" filterUnits="userSpaceOnUse" color-interpolation-filters="sRGB">
<feFlood flood-opacity="0" result="BackgroundImageFix"/>
<feColorMatrix in="SourceAlpha" type="matrix" values="0 0 0 0 0 0 0 0 0 0 0 0 0 0 0 0 0 0 127 0"/>
<feOffset dy="13"/>
<feGaussianBlur stdDeviation="7.5"/>
<feColorMatrix type="matrix" values="0 0 0 0 0 0 0 0 0 0 0 0 0 0 0 0 0 0 0.144395 0"/>
<feBlend mode="normal" in2="BackgroundImageFix" result="effect1_dropShadow"/>
<feBlend mode="normal" in="SourceGraphic" in2="effect1_dropShadow" result="shape"/>
</filter>
<filter id="filter3_d" x="275.234" y="105.237" width="272.181" height="197.485" filterUnits="userSpaceOnUse" color-interpolation-filters="sRGB">
<feFlood flood-opacity="0" result="BackgroundImageFix"/>
<feColorMatrix in="SourceAlpha" type="matrix" values="0 0 0 0 0 0 0 0 0 0 0 0 0 0 0 0 0 0 127 0"/>
<feOffset dx="6" dy="6"/>
<feGaussianBlur stdDeviation="8"/>
<feColorMatrix type="matrix" values="0 0 0 0 0.70188 0 0 0 0 0.70188 0 0 0 0 0.70188 0 0 0 0.208725 0"/>
<feBlend mode="normal" in2="BackgroundImageFix" result="effect1_dropShadow"/>
<feBlend mode="normal" in="SourceGraphic" in2="effect1_dropShadow" result="shape"/>
</filter>
<linearGradient id="paint0_linear" x1="553.834" y1="311.939" x2="542.754" y2="361.416" gradientUnits="userSpaceOnUse">
<stop stop-color="#FFAFAF"/>
<stop offset="1" stop-color="#F07777"/>
</linearGradient>
<linearGradient id="paint1_linear" x1="552.973" y1="302.545" x2="546.325" y2="335.064" gradientUnits="userSpaceOnUse">
<stop stop-color="#FDC6C6"/>
<stop offset="1" stop-color="#FAB2B2"/>
</linearGradient>
<linearGradient id="paint2_linear" x1="505.963" y1="505.352" x2="504.37" y2="535.133" gradientUnits="userSpaceOnUse">
<stop stop-color="#FDC6C6"/>
<stop offset="1" stop-color="#FAB2B2"/>
</linearGradient>
<linearGradient id="paint3_linear" x1="474.892" y1="543.704" x2="426.818" y2="451.427" gradientUnits="userSpaceOnUse">
<stop stop-color="#28324F"/>
<stop offset="1" stop-color="#222735"/>
</linearGradient>
<linearGradient id="paint4_linear" x1="469.772" y1="340.915" x2="467.62" y2="369.518" gradientUnits="userSpaceOnUse">
<stop stop-color="#FDC6C6"/>
<stop offset="1" stop-color="#FAB2B2"/>
</linearGradient>
<linearGradient id="paint5_linear" x1="548.734" y1="370.46" x2="548.103" y2="388.93" gradientUnits="userSpaceOnUse">
<stop stop-color="#FDC6C6"/>
<stop offset="1" stop-color="#FAB2B2"/>
</linearGradient>
<linearGradient id="paint6_linear" x1="241.337" y1="202.269" x2="231.448" y2="203.194" gradientUnits="userSpaceOnUse">
<stop stop-color="#4D63A0"/>
<stop offset="1" stop-color="#222735"/>
</linearGradient>
<linearGradient id="paint7_linear" x1="126.013" y1="401.433" x2="126.013" y2="417.998" gradientUnits="userSpaceOnUse">
<stop stop-color="#FE62BE"/>
<stop offset="1" stop-color="#FDB3A8"/>
</linearGradient>
<linearGradient id="paint8_linear" x1="102.291" y1="388.795" x2="104.022" y2="405.27" gradientUnits="userSpaceOnUse">
<stop stop-color="#FE62BE"/>
<stop offset="1" stop-color="#FDB3A8"/>
</linearGradient>
<linearGradient id="paint9_linear" x1="663.728" y1="503.858" x2="662.132" y2="533.708" gradientUnits="userSpaceOnUse">
<stop stop-color="#FDC6C6"/>
<stop offset="1" stop-color="#FAB2B2"/>
</linearGradient>
<linearGradient id="paint10_linear" x1="659.096" y1="331.529" x2="654.856" y2="392.079" gradientUnits="userSpaceOnUse">
<stop stop-color="#FDC6C6"/>
<stop offset="1" stop-color="#FAB2B2"/>
</linearGradient>
<linearGradient id="paint11_linear" x1="713.443" y1="307.528" x2="702.218" y2="357.065" gradientUnits="userSpaceOnUse">
<stop stop-color="#FFAFAF"/>
<stop offset="1" stop-color="#F07777"/>
</linearGradient>
<linearGradient id="paint12_linear" x1="712.686" y1="298.112" x2="706.025" y2="330.709" gradientUnits="userSpaceOnUse">
<stop stop-color="#FDC6C6"/>
<stop offset="1" stop-color="#FAB2B2"/>
</linearGradient>
<linearGradient id="paint13_linear" x1="628.451" y1="505.061" x2="626.89" y2="538.334" gradientUnits="userSpaceOnUse">
<stop stop-color="#FDC6C6"/>
<stop offset="1" stop-color="#FAB2B2"/>
</linearGradient>
<linearGradient id="paint14_linear" x1="738.38" y1="364.401" x2="736.873" y2="403.785" gradientUnits="userSpaceOnUse">
<stop stop-color="#FDC6C6"/>
<stop offset="1" stop-color="#FAB2B2"/>
</linearGradient>
<linearGradient id="paint15_linear" x1="585.223" y1="334.275" x2="597.147" y2="382.102" gradientUnits="userSpaceOnUse">
<stop stop-color="#9FF6EC"/>
<stop offset="1" stop-color="#7D9DFF"/>
</linearGradient>
<linearGradient id="paint16_linear" x1="290.949" y1="390.304" x2="302.7" y2="416.424" gradientUnits="userSpaceOnUse">
<stop stop-color="#FDC6C6"/>
<stop offset="1" stop-color="#A47070"/>
</linearGradient>
<linearGradient id="paint17_linear" x1="321.018" y1="291.839" x2="317.542" y2="338.739" gradientUnits="userSpaceOnUse">
<stop stop-color="#FDC6C6"/>
<stop offset="1" stop-color="#A47070"/>
</linearGradient>
<linearGradient id="paint18_linear" x1="406.319" y1="343.095" x2="403.969" y2="375.735" gradientUnits="userSpaceOnUse">
<stop stop-color="#FDC6C6"/>
<stop offset="1" stop-color="#A47070"/>
</linearGradient>
<linearGradient id="paint19_linear" x1="551.738" y1="393.207" x2="551.738" y2="396.386" gradientUnits="userSpaceOnUse">
<stop stop-color="#9FF6EC"/>
<stop offset="1" stop-color="#7D9DFF"/>
</linearGradient>
<linearGradient id="paint20_linear" x1="558.032" y1="345.282" x2="558.032" y2="393.909" gradientUnits="userSpaceOnUse">
<stop stop-color="#9FF6EC"/>
<stop offset="1" stop-color="#7D9DFF"/>
</linearGradient>
<linearGradient id="paint21_linear" x1="459.366" y1="496.881" x2="456.669" y2="525.059" gradientUnits="userSpaceOnUse">
<stop stop-color="#FDC6C6"/>
<stop offset="1" stop-color="#FAB2B2"/>
</linearGradient>
<linearGradient id="paint22_linear" x1="525.042" y1="496.123" x2="522.81" y2="522.105" gradientUnits="userSpaceOnUse">
<stop stop-color="#FDC6C6"/>
<stop offset="1" stop-color="#FAB2B2"/>
</linearGradient>
<linearGradient id="paint23_linear" x1="458.155" y1="302.686" x2="455.057" y2="344.483" gradientUnits="userSpaceOnUse">
<stop stop-color="#FDC6C6"/>
<stop offset="1" stop-color="#FFCCA1"/>
</linearGradient>
<linearGradient id="paint24_linear" x1="536.826" y1="343.73" x2="533.834" y2="397.407" gradientUnits="userSpaceOnUse">
<stop stop-color="#FDC6C6"/>
<stop offset="1" stop-color="#FFCCA1"/>
</linearGradient>
</defs>
</svg>
