<svg width="564" height="503" viewBox="0 0 564 503" fill="none" xmlns="http://www.w3.org/2000/svg">
<g opacity="0.1" filter="url(#filter0_f)">
<ellipse cx="108.145" cy="245.413" rx="102.145" ry="102.908" fill="#EC1383"/>
</g>
<path opacity="0.05" fill-rule="evenodd" clip-rule="evenodd" d="M337.331 158.394C337.331 104.682 380.874 61.139 434.586 61.139C488.299 61.139 531.842 104.682 531.842 158.394C531.842 212.107 488.299 255.65 434.586 255.65C380.874 255.65 337.331 212.107 337.331 158.394ZM490.287 157.952C490.287 127.434 465.547 102.694 435.028 102.694C404.51 102.694 379.77 127.434 379.77 157.952C379.77 188.471 404.51 213.211 435.028 213.211C465.547 213.211 490.287 188.471 490.287 157.952Z" fill="#00CFE8"/>
<ellipse opacity="0.1" cx="276.885" cy="48.6332" rx="33.5477" ry="33.6332" stroke="#A233F1" stroke-width="30"/>
<path opacity="0.1" d="M434.954 61.139C488.463 61.139 531.842 104.682 531.842 158.394C531.842 212.107 488.463 255.65 434.954 255.65C402.717 255.65 373.127 239.706 355.167 213.582C348.631 204.075 351.01 191.05 360.481 184.489C369.857 177.993 382.669 180.269 389.267 189.54L389.465 189.823C399.726 204.749 416.561 213.819 434.954 213.819C465.448 213.819 490.169 189.005 490.169 158.394C490.169 128.09 465.94 103.466 435.867 102.977L434.954 102.969C423.446 102.969 414.117 93.6052 414.117 82.0541C414.117 70.503 423.446 61.139 434.954 61.139Z" fill="#3B4ACF"/>
<path d="M486.16 101.646H83.2002C79.3342 101.646 76.2002 104.78 76.2002 108.646V373.591C76.2002 377.457 79.3342 380.591 83.2002 380.591H486.16C490.026 380.591 493.16 377.457 493.16 373.591V108.646C493.16 104.78 490.026 101.646 486.16 101.646Z" fill="#EBEBEB"/>
<path d="M485.154 105.094H84.2949C81.5335 105.094 79.2949 107.332 79.2949 110.094V372.232C79.2949 374.993 81.5335 377.232 84.2949 377.232H485.154C487.916 377.232 490.154 374.993 490.154 372.232V110.094C490.154 107.332 487.916 105.094 485.154 105.094Z" fill="#263238"/>
<path d="M547 401H22V412H547V401Z" fill="#DBDBDB"/>
<path d="M21.9141 401.457L76.2002 380.591H493.16L547.535 401.457H21.9141Z" fill="#EBEBEB"/>
<path d="M81.0625 394.03L116.163 380.591H453.285L488.297 394.03H81.0625Z" fill="#263238"/>
<path d="M466.903 125.694H102.461V356.454H466.903V125.694Z" fill="#07152A"/>
<path d="M466.99 125.694H102.194V134.536H466.99V125.694Z" fill="#455A64"/>
<path d="M109.267 130.203C109.267 131.441 108.295 132.414 107.057 132.414C105.819 132.414 104.847 131.441 104.847 130.203C104.847 128.966 105.819 127.993 107.057 127.993C108.295 127.993 109.267 128.966 109.267 130.203Z" fill="#C7C7C7"/>
<path d="M118.197 130.203C118.197 131.441 117.225 132.414 115.987 132.414C114.749 132.414 113.776 131.441 113.776 130.203C113.776 128.966 114.749 127.993 115.987 127.993C117.225 127.993 118.197 128.966 118.197 130.203Z" fill="white"/>
<path d="M127.216 130.203C127.216 131.441 126.243 132.414 125.005 132.414C123.767 132.414 122.795 131.441 122.795 130.203C122.795 128.966 123.767 127.993 125.005 127.993C126.243 127.993 127.216 128.966 127.216 130.203Z" fill="#2CE780"/>
<path fill-rule="evenodd" clip-rule="evenodd" d="M346.354 440.221C346.354 426.905 357.15 416.11 370.466 416.11L439.403 416.11V488.552C439.403 490.761 437.612 492.552 435.403 492.552H350.354C348.145 492.552 346.354 490.761 346.354 488.552L346.354 440.221Z" fill="#91D6FF"/>
<path fill-rule="evenodd" clip-rule="evenodd" d="M354.761 477.463L422.644 477.463V492.552H354.761L354.761 477.463Z" fill="#91D6FF"/>
<path fill-rule="evenodd" clip-rule="evenodd" d="M441.212 492.005L445.495 502.73H424.794L428.381 492.005H441.212Z" fill="#8C8C8C"/>
<path fill-rule="evenodd" clip-rule="evenodd" d="M370.684 492.005L374.966 502.73H354.266L357.853 492.005H370.684Z" fill="#8C8C8C"/>
<path fill-rule="evenodd" clip-rule="evenodd" d="M510.859 492.005L515.141 502.73H494.44L498.028 492.005H510.859Z" fill="#8C8C8C"/>
<path fill-rule="evenodd" clip-rule="evenodd" d="M399.261 361.215C399.261 348.102 409.74 337.394 422.849 337.109L439.931 336.739V423.32H399.261V361.215Z" fill="#91D6FF"/>
<path fill-rule="evenodd" clip-rule="evenodd" d="M407.195 360.85C407.195 347.534 417.99 336.739 431.307 336.739H493.381C505.443 336.739 515.221 346.517 515.221 358.579V423.337C515.221 424.302 514.439 425.085 513.474 425.085H407.195V360.85Z" fill="#BFE7FF"/>
<path fill-rule="evenodd" clip-rule="evenodd" d="M485.03 352.58C485.03 343.831 492.123 336.739 500.872 336.739V336.739C508.797 336.739 515.221 343.163 515.221 351.088V414.516C515.221 415.481 514.439 416.264 513.474 416.264H485.03V352.58Z" fill="#91D6FF"/>
<path fill-rule="evenodd" clip-rule="evenodd" d="M354.761 436.845C354.761 429.886 360.402 424.245 367.361 424.245H435.111V482.38H354.761V436.845Z" fill="#BFE7FF"/>
<path fill-rule="evenodd" clip-rule="evenodd" d="M422.173 440.221C422.173 426.905 432.968 416.11 446.284 416.11L515.221 416.11V490.805C515.221 491.77 514.439 492.552 513.474 492.552H422.173L422.173 440.221Z" fill="#91D6FF"/>
<path d="M526.758 450.881H533.831C540.667 450.881 546.209 456.422 546.209 463.258V463.258H539.136C532.3 463.258 526.758 457.717 526.758 450.881V450.881Z" fill="#2CE780"/>
<path d="M535.6 443.807H540.904C544.323 443.807 547.093 446.578 547.093 449.996V449.996H541.789C538.371 449.996 535.6 447.225 535.6 443.807V443.807Z" fill="#28C76F"/>
<path d="M563.008 449.996H556.819C550.959 449.996 546.209 454.746 546.209 460.606V460.606H552.398C558.258 460.606 563.008 455.856 563.008 449.996V449.996Z" fill="#28C76F"/>
<path fill-rule="evenodd" clip-rule="evenodd" d="M555.411 438.69L550.376 440.734C546.446 442.33 544.547 446.804 546.129 450.74V450.74L551.164 448.696C555.094 447.1 556.993 442.626 555.411 438.69V438.69Z" fill="#2CE780"/>
<path fill-rule="evenodd" clip-rule="evenodd" d="M542.464 437.618C545.23 439.372 546.984 442.707 547.088 446.368L547.093 446.713V472.984H545.674V446.713C545.674 443.633 544.28 440.792 542.024 439.235L541.788 439.078L542.464 437.618Z" fill="#28C76F"/>
<path fill-rule="evenodd" clip-rule="evenodd" d="M535.651 464.143H557.707C558.737 464.143 559.572 464.961 559.572 465.97V466.022C559.572 467.138 560.114 468.187 561.032 468.848L561.604 469.26C562.522 469.921 563.064 470.97 563.064 472.086V499.395C563.064 501.332 561.461 502.902 559.483 502.902H533.875C531.897 502.902 530.294 501.332 530.294 499.395V472.086C530.294 470.97 530.836 469.921 531.754 469.26L532.326 468.848C533.183 468.231 533.712 467.276 533.779 466.244L533.786 465.97C533.786 464.961 534.621 464.143 535.651 464.143Z" fill="#DA4E4F"/>
<mask id="mask0" mask-type="alpha" maskUnits="userSpaceOnUse" x="530" y="464" width="34" height="39">
<path fill-rule="evenodd" clip-rule="evenodd" d="M535.651 464.143H557.707C558.737 464.143 559.572 464.961 559.572 465.97V466.022C559.572 467.138 560.114 468.187 561.032 468.848L561.604 469.26C562.522 469.921 563.064 470.97 563.064 472.086V499.395C563.064 501.332 561.461 502.902 559.483 502.902H533.875C531.897 502.902 530.294 501.332 530.294 499.395V472.086C530.294 470.97 530.836 469.921 531.754 469.26L532.326 468.848C533.183 468.231 533.712 467.276 533.779 466.244L533.786 465.97C533.786 464.961 534.621 464.143 535.651 464.143Z" fill="white"/>
</mask>
<g mask="url(#mask0)">
<path fill-rule="evenodd" clip-rule="evenodd" d="M529.398 462.389H538.352C534.401 477.461 544.024 489.96 538.352 505.358H529.398V462.389Z" fill="#E95B5C"/>
<rect x="530.294" y="487.819" width="32.7702" height="3.50768" fill="#FFDFE2" fill-opacity="0.257949"/>
<rect x="530.294" y="478.173" width="32.7702" height="3.50768" fill="#FFDFE2" fill-opacity="0.257949"/>
</g>
<path fill-rule="evenodd" clip-rule="evenodd" d="M537.695 434.007L541.866 435.209C545.36 436.216 547.38 439.86 546.382 443.357V443.357L542.212 442.155C538.718 441.148 536.698 437.504 537.695 434.007V434.007Z" fill="#2CE780"/>
<path d="M325.277 202.359V246.283H312.865V202.359C312.865 185.677 300.212 172.137 284.577 172.137C268.942 172.137 256.288 185.677 256.288 202.359V246.283H243.877V202.359C243.877 178.423 262.091 159 284.577 159C306.982 159 325.277 178.423 325.277 202.359Z" fill="#BFBFBF"/>
<path d="M243.877 213.804L256.288 214.287V246.283H243.877V213.804Z" fill="#263238"/>
<path d="M325.277 217.108V246.283H312.865V216.544L325.277 217.108Z" fill="#263238"/>
<path d="M341.154 221.218H228V323.895H341.154V221.218Z" fill="#3E7BE5"/>
<g style="mix-blend-mode:color-burn" opacity="0.1">
<path d="M341.154 221.218H284.577V323.895H341.154V221.218Z" fill="#E5E5E5"/>
</g>
<path d="M289.331 276.344L294.086 298.83H274.019L278.774 276.344C275.953 274.571 274.019 271.428 274.019 267.882C274.019 262.241 278.532 257.808 284.093 257.808C289.654 257.808 294.167 262.241 294.167 267.882C294.086 271.428 292.152 274.571 289.331 276.344Z" fill="#263238"/>
<circle cx="118" cy="391" r="97" fill="#1B3050"/>
<g filter="url(#filter1_d)">
<path fill-rule="evenodd" clip-rule="evenodd" d="M169 393C169 421.167 146.167 444 118 444C107.166 444 97.1213 440.622 88.8613 434.862L159.862 363.861C165.622 372.121 169 382.166 169 393ZM75.0016 420.437L145.437 350.002C137.515 344.936 128.1 342 118 342C89.8335 342 67 364.833 67 393C67 403.1 69.9362 412.515 75.0016 420.437ZM189 393C189 432.212 157.212 464 118 464C78.7878 464 47 432.212 47 393C47 353.788 78.7878 322 118 322C157.212 322 189 353.788 189 393Z" fill="#F85E5E"/>
</g>
<defs>
<filter id="filter0_f" x="0.563437" y="137.069" width="215.163" height="216.688" filterUnits="userSpaceOnUse" color-interpolation-filters="sRGB">
<feFlood flood-opacity="0" result="BackgroundImageFix"/>
<feBlend mode="normal" in="SourceGraphic" in2="BackgroundImageFix" result="shape"/>
<feGaussianBlur stdDeviation="2.71828" result="effect1_foregroundBlur"/>
</filter>
<filter id="filter1_d" x="39" y="318" width="158" height="158" filterUnits="userSpaceOnUse" color-interpolation-filters="sRGB">
<feFlood flood-opacity="0" result="BackgroundImageFix"/>
<feColorMatrix in="SourceAlpha" type="matrix" values="0 0 0 0 0 0 0 0 0 0 0 0 0 0 0 0 0 0 127 0"/>
<feOffset dy="4"/>
<feGaussianBlur stdDeviation="4"/>
<feColorMatrix type="matrix" values="0 0 0 0 0 0 0 0 0 0 0 0 0 0 0 0 0 0 0.25 0"/>
<feBlend mode="normal" in2="BackgroundImageFix" result="effect1_dropShadow"/>
<feBlend mode="normal" in="SourceGraphic" in2="effect1_dropShadow" result="shape"/>
</filter>
</defs>
</svg>
